<svg id="OBJECT" xmlns="http://www.w3.org/2000/svg" xmlns:xlink="http://www.w3.org/1999/xlink" viewBox="0 0 437.2 495.55"><defs><style>.cls-1{fill:none;}.cls-2{clip-path:url(#clip-path);}.cls-3{fill:#f5efdb;}.cls-4{fill:#456621;}.cls-5{fill:#577c2c;}.cls-6,.cls-7{fill:#638933;}.cls-7,.cls-9{font-size:43.09px;}.cls-24,.cls-7,.cls-9{font-family:BebasNeueRegular;}.cls-8,.cls-9{fill:#7ca740;}.cls-10{fill:#f7b781;}.cls-11{fill:#e69261;}.cls-12{fill:#b32d2f;}.cls-13{fill:#eb3a27;}.cls-14{fill:#f5f0da;}.cls-15{fill:#f4dfa6;}.cls-16{fill:#3f4d54;}.cls-17{fill:#698793;}.cls-18{fill:#6e7c7d;}.cls-19{fill:#0095a8;}.cls-20{fill:#70cacd;}.cls-21{fill:#f58a28;}.cls-22{fill:#ef9e20;}.cls-23,.cls-24{fill:#f05a28;}.cls-24{font-size:26.29px;}.cls-25{fill:#fffaef;}.cls-26{fill:#24788b;}.cls-27{fill:#599688;}.cls-28{fill:#6cae88;}</style><clipPath id="clip-path" transform="translate(-26.93 -54.7)"><rect class="cls-1" width="500" height="500"/></clipPath></defs><g class="cls-2"><circle class="cls-3" cx="223.07" cy="195.3" r="195.3"/><rect class="cls-4" x="67.94" y="214.77" width="61.7" height="119.39" transform="translate(71.12 -71.94) rotate(19.65)"/><rect class="cls-5" x="60.07" y="207.81" width="61.7" height="119.39" transform="translate(39.34 -68.66) rotate(13.77)"/><rect class="cls-6" x="63.46" y="211.74" width="54.27" height="111.22" transform="translate(39.29 -68.58) rotate(13.77)"/><path class="cls-4" d="M52.2,295.89s22.52-.05,15.78,27.46l-21.23-5.21Z" transform="translate(-26.93 -54.7)"/><path class="cls-4" d="M69.71,224.44s19.94,10.45,26.68-17.05l-21.23-5.2Z" transform="translate(-26.93 -54.7)"/><path class="cls-5" d="M129.64,239.13s-22.51.05-15.77-27.46l21.22,5.2Z" transform="translate(-26.93 -54.7)"/><path class="cls-5" d="M112.13,310.57s-19.94-10.45-26.68,17.06l21.23,5.2Z" transform="translate(-26.93 -54.7)"/><ellipse class="cls-5" cx="92.45" cy="268.06" rx="20.22" ry="29.24" transform="translate(-216.85 239.36) rotate(-76.23)"/><text class="cls-7" transform="translate(76.82 223.77) rotate(-76.23)">$</text><rect class="cls-5" x="17.9" y="145.47" width="61.7" height="119.39"/><rect class="cls-8" x="21.26" y="149.48" width="54.27" height="111.22"/><path class="cls-5" d="M44.83,296.65s21.85-5.41,21.85,22.92H44.83Z" transform="translate(-26.93 -54.7)"/><path class="cls-5" d="M44.83,223.09s21.85,5.41,21.85-22.91H44.83Z" transform="translate(-26.93 -54.7)"/><path class="cls-5" d="M106.53,223.09s-21.85,5.41-21.85-22.91h21.85Z" transform="translate(-26.93 -54.7)"/><path class="cls-5" d="M106.53,296.65s-21.85-5.41-21.85,22.92h21.85Z" transform="translate(-26.93 -54.7)"/><ellipse class="cls-5" cx="50.36" cy="205.34" rx="29.24" ry="20.22"/><text class="cls-9" transform="translate(63.83 212.8) rotate(-90)">$</text><path class="cls-10" d="M97.8,378.39V356s12-37.14-27-42.53c0,0,.82-57.66-17.37-55.72V310.5l-7.79-4.79-.85-67.79L26.93,308.5l36.31,48.2-.18,21.69Z" transform="translate(-26.93 -54.7)"/><path class="cls-11" d="M97.8,365.84H71.66l-3.78-14.79S47.94,325.53,31.22,314.2l32,42.5v16.55L97.8,369.8Z" transform="translate(-26.93 -54.7)"/><path class="cls-11" d="M54.07,286.48l7.45-1.33S57.1,288.46,54.07,286.48Z" transform="translate(-26.93 -54.7)"/><path class="cls-11" d="M54.07,289.59l7.45-1.33S57.1,291.58,54.07,289.59Z" transform="translate(-26.93 -54.7)"/><path class="cls-11" d="M54.07,292.85l7.45-1.33S57.1,294.83,54.07,292.85Z" transform="translate(-26.93 -54.7)"/><path class="cls-11" d="M54.92,273.74s10.77,1.46,2.81-13.94C57.73,259.8,63.4,273.21,54.92,273.74Z" transform="translate(-26.93 -54.7)"/><rect class="cls-12" x="29.81" y="325.03" width="52.95" height="170.52"/><rect class="cls-13" x="58.05" y="343.22" width="24.72" height="151.92"/><polygon class="cls-14" points="28.15 312.92 82.76 315.88 87.38 349.73 25.01 351.97 28.15 312.92"/><polygon class="cls-15" points="30.2 317.74 55.7 319.94 57.85 345.12 28.74 346.79 30.2 317.74"/><rect class="cls-16" x="130.17" y="214.59" width="67.21" height="119.59"/><rect class="cls-17" x="137.66" y="222.64" width="52.7" height="94.77"/><polygon class="cls-18" points="137.66 317.41 137.66 222.64 190.36 222.64 137.66 317.41"/><path class="cls-10" d="M183.33,406.23l-26.23,2.5-12.39-79.24,38.62-15.06s2.61,12.78-23.63,22.71l2.08,12S197.61,356.29,183.33,406.23Z" transform="translate(-26.93 -54.7)"/><polygon class="cls-10" points="163.78 351.52 197.38 334.18 130.17 334.18 130.17 379.39 163.78 379.39 163.78 351.52"/><path class="cls-10" d="M232,322.85,198.78,326a15.68,15.68,0,0,0,14.28,11.15C224.82,338.07,230.23,334.25,232,322.85Z" transform="translate(-26.93 -54.7)"/><path class="cls-10" d="M230.71,329.23l-34.55,22.12s8.49,9,20.54,3.32C232,347.43,236.08,340.51,230.71,329.23Z" transform="translate(-26.93 -54.7)"/><path class="cls-10" d="M230.91,344l-29.64,22.21s4.61,8.51,14.82,2S235.51,356.34,230.91,344Z" transform="translate(-26.93 -54.7)"/><path class="cls-10" d="M230.91,357.34l-29.64,22.21s4.61,8.52,14.82,2S235.51,369.67,230.91,357.34Z" transform="translate(-26.93 -54.7)"/><polygon class="cls-11" points="182.77 334.27 158.98 340.88 159.61 334.18 182.77 334.27"/><path class="cls-11" d="M190.71,419.34l-26.58-2V406.12s-12.57-27.09-16-54.84l9,57.45v25.36h33.61Z" transform="translate(-26.93 -54.7)"/><path class="cls-11" d="M159.07,323.62l4.16,6.28S158.77,327.09,159.07,323.62Z" transform="translate(-26.93 -54.7)"/><path class="cls-11" d="M156.61,324.75l4.15,6.28S156.3,328.22,156.61,324.75Z" transform="translate(-26.93 -54.7)"/><path class="cls-11" d="M154,325.93l4.15,6.28S153.72,329.41,154,325.93Z" transform="translate(-26.93 -54.7)"/><path class="cls-11" d="M169.52,319.76s3.33,10.31,12.2-2.52C181.72,317.24,173.47,327.26,169.52,319.76Z" transform="translate(-26.93 -54.7)"/><path class="cls-11" d="M222.05,322.85l-.35,6.91S223.91,325.43,222.05,322.85Z" transform="translate(-26.93 -54.7)"/><path class="cls-11" d="M224.51,322.57l-.34,6.91S226.37,325.14,224.51,322.57Z" transform="translate(-26.93 -54.7)"/><path class="cls-11" d="M227.09,322.26l-.34,6.91S229,324.84,227.09,322.26Z" transform="translate(-26.93 -54.7)"/><path class="cls-11" d="M212,324.81s2.18,9.68-10.76,3.85C201.28,328.66,212.42,332.58,212,324.81Z" transform="translate(-26.93 -54.7)"/><path class="cls-11" d="M216.43,338.44l3,6.21S219.3,339.79,216.43,338.44Z" transform="translate(-26.93 -54.7)"/><path class="cls-11" d="M218.39,337.14l3.06,6.2S221.27,338.49,218.39,337.14Z" transform="translate(-26.93 -54.7)"/><path class="cls-11" d="M219.48,335.34l3.06,6.21S222.36,336.69,219.48,335.34Z" transform="translate(-26.93 -54.7)"/><path class="cls-11" d="M208.44,344s6.61,7.4-7.54,8.59C200.9,352.61,212.55,350.63,208.44,344Z" transform="translate(-26.93 -54.7)"/><path class="cls-11" d="M217.91,352.28l3.05,6.21S220.78,353.63,217.91,352.28Z" transform="translate(-26.93 -54.7)"/><path class="cls-11" d="M219.92,350.83,223,357S222.8,352.18,219.92,350.83Z" transform="translate(-26.93 -54.7)"/><path class="cls-11" d="M222,349.31l3.06,6.21S224.91,350.66,222,349.31Z" transform="translate(-26.93 -54.7)"/><path class="cls-11" d="M210.94,359.64s4.45,6.69-5.43,8.09C205.51,367.73,213.67,365.65,210.94,359.64Z" transform="translate(-26.93 -54.7)"/><path class="cls-11" d="M219.48,366l3.06,6.21S222.36,367.36,219.48,366Z" transform="translate(-26.93 -54.7)"/><path class="cls-11" d="M221.5,364.56l3.05,6.21S224.37,365.91,221.5,364.56Z" transform="translate(-26.93 -54.7)"/><path class="cls-11" d="M223.61,363l3,6.21S226.48,364.39,223.61,363Z" transform="translate(-26.93 -54.7)"/><path class="cls-11" d="M211.69,372.59s6.61,7.4-7.54,8.59C204.15,381.18,215.8,379.19,211.69,372.59Z" transform="translate(-26.93 -54.7)"/><rect class="cls-19" x="125.26" y="378.42" width="45.02" height="110.93"/><rect class="cls-20" x="148.89" y="390.25" width="21.75" height="98.83"/><polygon class="cls-14" points="123.8 366.31 171.85 369.27 175.91 403.12 121.04 405.35 123.8 366.31"/><polygon class="cls-15" points="125.6 371.12 148.03 373.33 149.93 398.51 124.31 400.17 125.6 371.12"/><path class="cls-11" d="M413.36,327.32S411,304.24,440,291.45l4.77,7.43Z" transform="translate(-26.93 -54.7)"/><path class="cls-11" d="M456.32,292.22l-4.42-45.14s-26.8-7.77-47.71-19.56c0,0-2,9.55,11.32,15.54l30.4,11Z" transform="translate(-26.93 -54.7)"/><path class="cls-10" d="M411,394.84V348.67l-27.26-18.6-6.82-39.16s17-7.22,20.45,28.22l16,8.19,19.45-22.67L428,269.81s-44.61-9.94-41.84-26.39l54.7,13.45,17.84,45.74L445.76,337.9l.68,56.94Z" transform="translate(-26.93 -54.7)"/><circle class="cls-21" cx="358.84" cy="217.83" r="18.5"/><circle class="cls-22" cx="358.84" cy="217.83" r="13.68"/><path class="cls-10" d="M458.71,302.61,448.48,252l-51.11-19.56s-3.65,23,43.5,24.46C440.87,256.87,444.4,290.34,458.71,302.61Z" transform="translate(-26.93 -54.7)"/><rect class="cls-23" x="375.26" y="319.88" width="56.98" height="175.2"/><rect class="cls-22" x="405.64" y="338.56" width="26.6" height="156.09"/><polygon class="cls-14" points="373.47 307.77 432.23 310.73 437.19 344.58 370.09 346.81 373.47 307.77"/><polygon class="cls-15" points="375.68 312.58 403.11 314.79 405.42 339.97 374.1 341.63 375.68 312.58"/><path class="cls-11" d="M381.14,313.58l7.07-2.61S384.45,314.67,381.14,313.58Z" transform="translate(-26.93 -54.7)"/><path class="cls-11" d="M381.68,316.24l7.07-2.61S385,317.33,381.68,316.24Z" transform="translate(-26.93 -54.7)"/><path class="cls-11" d="M382.24,319l7.07-2.61S385.55,320.11,382.24,319Z" transform="translate(-26.93 -54.7)"/><path class="cls-11" d="M379.78,302.53s10.8-.89.35-12.46C380.13,290.07,388,300.4,379.78,302.53Z" transform="translate(-26.93 -54.7)"/><path class="cls-11" d="M412.22,249.8,409.05,256S412.85,252.92,412.22,249.8Z" transform="translate(-26.93 -54.7)"/><path class="cls-11" d="M414.58,250.56l-3.16,6.15S415.21,253.67,414.58,250.56Z" transform="translate(-26.93 -54.7)"/><path class="cls-11" d="M417.06,251.35l-3.17,6.15S417.69,254.46,417.06,251.35Z" transform="translate(-26.93 -54.7)"/><path class="cls-11" d="M436.77,258.33l-5.58,6.95S436.8,262.2,436.77,258.33Z" transform="translate(-26.93 -54.7)"/><path class="cls-11" d="M446.08,247.08,440.5,254S446.11,251,446.08,247.08Z" transform="translate(-26.93 -54.7)"/><path class="cls-11" d="M439.61,259.62,434,266.57S439.63,263.5,439.61,259.62Z" transform="translate(-26.93 -54.7)"/><path class="cls-11" d="M448.87,249.07,443.29,256S448.9,252.94,448.87,249.07Z" transform="translate(-26.93 -54.7)"/><path class="cls-11" d="M442.57,261,437,267.92S442.6,264.85,442.57,261Z" transform="translate(-26.93 -54.7)"/><path class="cls-11" d="M451.66,252.48l-5.58,7S451.69,256.36,451.66,252.48Z" transform="translate(-26.93 -54.7)"/><path class="cls-11" d="M402.59,248.49s-2,9.72-11.4-.94C391.19,247.55,399.73,255.73,402.59,248.49Z" transform="translate(-26.93 -54.7)"/><path class="cls-11" d="M421.22,241.07l-4.19,5.5S421.29,244.24,421.22,241.07Z" transform="translate(-26.93 -54.7)"/><path class="cls-11" d="M423.41,242.22l-4.19,5.51S423.49,245.4,423.41,242.22Z" transform="translate(-26.93 -54.7)"/><path class="cls-11" d="M425.71,243.43l-4.19,5.51S425.79,246.61,425.71,243.43Z" transform="translate(-26.93 -54.7)"/><path class="cls-11" d="M412,238.08s-3.68,9.22-11.05-2.91C400.92,235.17,407.89,244.71,412,238.08Z" transform="translate(-26.93 -54.7)"/><polygon class="cls-11" points="419.07 303.71 390.88 301.65 390.88 291.7 356.81 275.36 384.07 293.96 384.07 308.3 419.15 310.07 419.07 303.71"/><polygon class="cls-11" points="382.12 194.34 415.64 202.01 424.97 239.39 414.11 203.63 382.12 194.34"/><text class="cls-24" transform="translate(353.25 226.58)">$</text><polygon class="cls-10" points="309.62 298.99 309.62 266.76 323.45 251.04 325.32 190.18 256.46 177.71 256.46 258.92 264.88 271.69 264.88 298.99 309.62 298.99"/><rect class="cls-19" x="264.99" y="232.42" width="88.97" height="51.29" rx="11.57" transform="translate(29.07 -109.89) rotate(11.2)"/><rect class="cls-16" x="267.55" y="241.28" width="88.97" height="7.77" transform="translate(26.61 -110.63) rotate(11.2)"/><rect class="cls-25" x="272.5" y="252.5" width="51.37" height="4.47" rx="1.9" transform="translate(28.21 -107.76) rotate(11.2)"/><rect class="cls-26" x="270.68" y="261.03" width="37.68" height="4.47" rx="1.9" transform="translate(29.7 -105.91) rotate(11.2)"/><rect class="cls-26" x="269.16" y="268.71" width="37.68" height="4.47" rx="1.9" transform="translate(31.16 -105.47) rotate(11.2)"/><circle class="cls-26" cx="311.09" cy="222.15" r="6.15"/><path class="cls-10" d="M291.81,326.4,255.4,294.09V248s16.61,3.85,13.2,38.25c0,0,39-24.8,49.67,32.88Z" transform="translate(-26.93 -54.7)"/><path class="cls-10" d="M318.11,215.4,300.7,247.91s10.55,6,20.29-6S329.13,225.3,318.11,215.4Z" transform="translate(-26.93 -54.7)"/><path class="cls-10" d="M333,218.11l-19,35.24s10.81,4.74,20.56-7.28S344.06,228,333,218.11Z" transform="translate(-26.93 -54.7)"/><path class="cls-10" d="M346.83,225.34l-19,35.24s10.81,4.73,20.55-7.28S357.84,235.24,346.83,225.34Z" transform="translate(-26.93 -54.7)"/><path class="cls-10" d="M304.4,212.06,287.72,240s9.92,8.78,19.43-3.41C315.72,225.6,316.88,220.05,304.4,212.06Z" transform="translate(-26.93 -54.7)"/><rect class="cls-27" x="256.46" y="298.99" width="61.34" height="196.56"/><rect class="cls-28" x="289.17" y="319.96" width="28.63" height="175.12"/><polygon class="cls-14" points="254.54 286.88 317.8 289.84 323.14 323.69 250.9 325.93 254.54 286.88"/><polygon class="cls-15" points="256.91 291.7 286.44 293.9 288.94 319.08 255.22 320.75 256.91 291.7"/><polygon class="cls-11" points="309.62 285.3 271.32 281.41 269.64 266.76 228.47 239.39 264.88 271.69 264.88 287.37 309.62 289.46 309.62 285.3"/><path class="cls-11" d="M312,298.88s-17.56-23.1-43.43-12.63c0,0,3-3.95,14.79-5.08v-2.32l57.54,11.22S321,291.49,312,298.88Z" transform="translate(-26.93 -54.7)"/><path class="cls-11" d="M255.4,275.24l7.43-1.23S258.45,276.94,255.4,275.24Z" transform="translate(-26.93 -54.7)"/><path class="cls-11" d="M255.43,278l7.43-1.23S258.47,279.65,255.43,278Z" transform="translate(-26.93 -54.7)"/><path class="cls-11" d="M255.46,280.79l7.43-1.22S258.5,282.49,255.46,280.79Z" transform="translate(-26.93 -54.7)"/><path class="cls-11" d="M256.14,264.13s10.78,1.17,2.69-12.16C258.83,252,264.61,263.59,256.14,264.13Z" transform="translate(-26.93 -54.7)"/><path class="cls-11" d="M298.74,220.76l5.29,4.46S301.92,220.84,298.74,220.76Z" transform="translate(-26.93 -54.7)"/><path class="cls-11" d="M294.24,229.91s9,4.13-3.45,10.9C290.79,240.81,300.66,234.31,294.24,229.91Z" transform="translate(-26.93 -54.7)"/><path class="cls-11" d="M311.92,227.52l5.3,4.46S315.1,227.6,311.92,227.52Z" transform="translate(-26.93 -54.7)"/><path class="cls-11" d="M313.19,225.38l5.29,4.46S316.36,225.46,313.19,225.38Z" transform="translate(-26.93 -54.7)"/><path class="cls-11" d="M314.51,223.15l5.29,4.45S317.68,223.23,314.51,223.15Z" transform="translate(-26.93 -54.7)"/><path class="cls-11" d="M307.42,236.67s9,4.13-3.45,10.9C304,247.57,313.84,241.07,307.42,236.67Z" transform="translate(-26.93 -54.7)"/><path class="cls-11" d="M326.17,229.87l5.3,4.45S329.35,230,326.17,229.87Z" transform="translate(-26.93 -54.7)"/><path class="cls-11" d="M327.44,227.73l5.29,4.46S330.61,227.81,327.44,227.73Z" transform="translate(-26.93 -54.7)"/><path class="cls-11" d="M328.76,225.49l5.29,4.46S331.93,225.57,328.76,225.49Z" transform="translate(-26.93 -54.7)"/><path class="cls-11" d="M338.35,239.73l5.29,4.46S341.53,239.81,338.35,239.73Z" transform="translate(-26.93 -54.7)"/><path class="cls-11" d="M339.61,237.59l5.3,4.46S342.79,237.67,339.61,237.59Z" transform="translate(-26.93 -54.7)"/><path class="cls-11" d="M340.94,235.36l5.29,4.45S344.11,235.44,340.94,235.36Z" transform="translate(-26.93 -54.7)"/><path class="cls-11" d="M323,241s9,4.13-3.46,10.9C319.51,251.94,329.39,245.44,323,241Z" transform="translate(-26.93 -54.7)"/><path class="cls-11" d="M334.92,248.82s9,4.13-3.45,10.9C331.47,259.72,341.34,253.22,334.92,248.82Z" transform="translate(-26.93 -54.7)"/><path class="cls-11" d="M300.17,219l4.72,4S303,219.08,300.17,219Z" transform="translate(-26.93 -54.7)"/><path class="cls-11" d="M301.35,217l4.72,4S304.19,217.08,301.35,217Z" transform="translate(-26.93 -54.7)"/></g></svg>