<svg id="Layer_1" data-name="Layer 1" xmlns="http://www.w3.org/2000/svg" viewBox="0 0 837.57 540.56"><defs><style>.cls-1{fill:#e9ecf2;}.cls-2{fill:#f3faff;}.cls-3{fill:#9aade5;}.cls-4{fill:#fff;}.cls-5{fill:#bac8f3;}.cls-6{fill:#2e4882;}.cls-7{fill:#446bd0;}.cls-8{fill:#a2c3f2;}.cls-9{fill:#e1eaff;}.cls-10{fill:#608be2;}.cls-11{fill:#f49b51;}.cls-12{fill:#fcc659;}.cls-13{fill:#fcb47e;}.cls-14{fill:#374263;}.cls-15{fill:#3f5a9f;}.cls-16{fill:#385087;}.cls-17{fill:#6d92f0;}.cls-18{fill:#7d9ef2;}.cls-19{fill:#ffe6a6;}</style></defs><ellipse class="cls-1" cx="416.83" cy="523.76" rx="352.56" ry="16.8"/><path class="cls-2" d="M215.37,496.74c-61.18-19-144-113.86-110.35-206.36,19.15-52.63,79.27-56.55,126.52-65.3,65.67-12.15,95.23-50.79,138.72-98.34,48.6-53.14,159-115.22,256.61-32.51,26.29,22.28,30.47,65.35,64.4,95.59,34.12,30.4,78.61,30.54,98.63,90.74,15.6,46.91-51.56,144.5-97.07,173.59C608.66,507.94,353.33,539.51,215.37,496.74Z" transform="translate(-31.21 -29.72)"/><path class="cls-3" d="M827.83,302.85l0,1c-1,42.54-7.06,75.41-15.79,100.82l-22.6,12.46,18.15-1.84.52-.05c-11.25,27.84-25.71,45.45-39.08,56.56A94,94,0,0,1,746.35,486l-1.26.53c-1,.43-2,.82-3,1.17H730c-.14-.57-.27-1.13-.39-1.7-.08-.36-.16-.72-.23-1.07s-.2-.95-.29-1.41C717.76,427.91,738,385.12,763,355.18a1.73,1.73,0,0,1,.25-.3A212,212,0,0,1,790,328.37l4.62,13.83,1.76-18.95a209.12,209.12,0,0,1,30.7-20Z" transform="translate(-31.21 -29.72)"/><polygon class="cls-4" points="797.03 273.35 796.59 274.16 769.16 324.63 768.67 325.52 761.19 339.28 760.94 339.74 737.09 383.61 737.06 383.67 698.2 455.16 697.62 456.23 696.69 457.93 695.64 457.93 696.55 456.23 697.9 453.75 736.25 383.2 736.96 381.89 795.89 273.49 796.22 272.9 797.03 273.35"/><rect class="cls-4" x="789.48" y="359.45" width="37.25" height="0.81" transform="translate(-100.11 445.87) rotate(-31.52)"/><rect class="cls-4" x="797.67" y="347.11" width="29.2" height="0.81" transform="translate(-93.05 446.23) rotate(-31.52)"/><rect class="cls-4" x="765.25" y="354.78" width="0.81" height="58.73" transform="matrix(1, -0.08, 0.08, 1, -58.38, 30.03)"/><path class="cls-5" d="M724.7,496.8s27.82,15,69.68-7.1l-12.83-6.94,21.44,2c16.42-10.25,34.7-26.24,54.08-50.71l-4.9-2.65,6.5.6q4.91-6.28,9.9-13.31a157.72,157.72,0,0,0-29-.6l-9.36,11.39,3-10.87C798.13,422.06,746.44,437.66,724.7,496.8Z" transform="translate(-31.21 -29.72)"/><rect class="cls-4" x="713.52" y="455.9" width="164.21" height="0.91" transform="translate(-151.91 386.17) rotate(-27.31)"/><rect class="cls-4" x="840.23" y="430.01" width="0.85" height="20.4" transform="translate(244.72 1173.1) rotate(-81.12)"/><rect class="cls-4" x="831.86" y="434.31" width="0.85" height="24.04" transform="translate(177.73 1126.08) rotate(-76.9)"/><path class="cls-6" d="M760.77,446.51l-.67-.84c12.44-9.94,27.34-17.41,44.28-22.23l.3,1C787.87,429.25,773.1,436.66,760.77,446.51Z" transform="translate(-31.21 -29.72)"/><path class="cls-7" d="M753.11,176.92V543.18a9.26,9.26,0,0,1-9.26,9.26h-180a9.27,9.27,0,0,1-9.26-9.26V176.92a9.26,9.26,0,0,1,9.26-9.26h180A9.25,9.25,0,0,1,753.11,176.92Z" transform="translate(-31.21 -29.72)"/><path class="cls-8" d="M744.53,176.92V543.18a9.26,9.26,0,0,1-9.26,9.26h-180a9.27,9.27,0,0,1-9.26-9.26V176.92a9.26,9.26,0,0,1,9.26-9.26h180A9.25,9.25,0,0,1,744.53,176.92Z" transform="translate(-31.21 -29.72)"/><path class="cls-9" d="M730.9,214.9V505.2c0,5.91-4.49,10.7-10,10.7H569.63c-5.53,0-10-4.79-10-10.7V214.9c0-5.91,4.48-10.7,10-10.7H720.88C726.41,204.2,730.9,209,730.9,214.9Z" transform="translate(-31.21 -29.72)"/><path class="cls-6" d="M670.27,185.32h-50a.9.9,0,0,1,0-1.79h50a.9.9,0,1,1,0,1.79Z" transform="translate(-31.21 -29.72)"/><rect class="cls-10" x="559.74" y="366.01" width="108.6" height="23.76" rx="9.97"/><path class="cls-4" d="M722.81,518.05H567.7a12.66,12.66,0,0,1-12.42-12.85V214.9a12.66,12.66,0,0,1,12.42-12.85H722.81a12.66,12.66,0,0,1,12.42,12.85V505.2A12.66,12.66,0,0,1,722.81,518.05ZM567.7,206.34a8.36,8.36,0,0,0-8.13,8.56V505.2a8.36,8.36,0,0,0,8.13,8.56H722.81a8.36,8.36,0,0,0,8.13-8.56V214.9a8.36,8.36,0,0,0-8.13-8.56Z" transform="translate(-31.21 -29.72)"/><rect class="cls-7" x="568.28" y="255.12" width="154.08" height="102.99" rx="5.37" transform="translate(1259.43 583.51) rotate(180)"/><rect class="cls-4" x="548.59" y="288.35" width="28.71" height="7.87" rx="1.45"/><rect class="cls-4" x="582.7" y="288.35" width="28.71" height="7.87" rx="1.45"/><rect class="cls-4" x="616.81" y="288.35" width="28.71" height="7.87" rx="1.45"/><rect class="cls-4" x="650.92" y="288.35" width="28.71" height="7.87" rx="1.45"/><rect class="cls-4" x="642.14" y="303.74" width="37.49" height="7.87" rx="1.77"/><path class="cls-4" d="M586.35,285.52V275.19a4.11,4.11,0,0,1,4.1-4.1h20.06a4.11,4.11,0,0,1,4.1,4.1v10.33a4.1,4.1,0,0,1-4.1,4.09H590.45A4.1,4.1,0,0,1,586.35,285.52Zm4.1-13.33a3,3,0,0,0-3,3v10.33a3,3,0,0,0,3,3h20.06a3,3,0,0,0,3-3V275.19a3,3,0,0,0-3-3Z" transform="translate(-31.21 -29.72)"/><path class="cls-4" d="M706.08,278.92a.47.47,0,0,1,.15-.35,11.59,11.59,0,0,0,0-16.37.5.5,0,0,1,0-.71.5.5,0,0,1,.7,0,12.59,12.59,0,0,1,0,17.78.5.5,0,0,1-.85-.35Z" transform="translate(-31.21 -29.72)"/><path class="cls-4" d="M703.59,264.69a.5.5,0,0,1,.85-.35,8.55,8.55,0,0,1,0,12.08.49.49,0,1,1-.7-.7,7.57,7.57,0,0,0,0-10.68A.47.47,0,0,1,703.59,264.69Z" transform="translate(-31.21 -29.72)"/><path class="cls-4" d="M701.2,273.43a.49.49,0,0,1,.15-.35,3.82,3.82,0,0,0,0-5.4.49.49,0,0,1,.7-.7,4.8,4.8,0,0,1,0,6.8.48.48,0,0,1-.7,0A.47.47,0,0,1,701.2,273.43Z" transform="translate(-31.21 -29.72)"/><path class="cls-6" d="M745.34,470.71h-1.61V176.93a8.47,8.47,0,0,0-8.46-8.46h-180a8.47,8.47,0,0,0-8.46,8.46V428.56h-1.6V176.93a10.07,10.07,0,0,1,10.06-10.07h180a10.08,10.08,0,0,1,10.07,10.07Z" transform="translate(-31.21 -29.72)"/><path class="cls-6" d="M576,553.24H555.24a10.07,10.07,0,0,1-10.06-10.07V500.82h1.6v42.35a8.47,8.47,0,0,0,8.46,8.46H576Z" transform="translate(-31.21 -29.72)"/><rect class="cls-6" x="607.71" y="521.91" width="19.16" height="1.61"/><path class="cls-11" d="M757.2,550.82c0,2.77-20.32,5-45.37,5s-45.37-2.25-45.37-5a.89.89,0,0,1,0-.15V537.11h90.69v13.53A.57.57,0,0,1,757.2,550.82Z" transform="translate(-31.21 -29.72)"/><ellipse class="cls-12" cx="680.61" cy="507.51" rx="45.37" ry="5.02"/><path class="cls-11" d="M767.92,534.46c0,2.77-20.32,5-45.37,5s-45.37-2.25-45.37-5a.77.77,0,0,1,0-.15V520.75h90.69v13.53A.57.57,0,0,1,767.92,534.46Z" transform="translate(-31.21 -29.72)"/><ellipse class="cls-12" cx="691.33" cy="491.15" rx="45.37" ry="5.02"/><path class="cls-11" d="M757.2,518.1c0,2.76-20.32,5-45.37,5s-45.37-2.25-45.37-5a.68.68,0,0,1,0-.15V504.38h90.69v13.53A.63.63,0,0,1,757.2,518.1Z" transform="translate(-31.21 -29.72)"/><ellipse class="cls-12" cx="680.61" cy="474.79" rx="45.37" ry="5.02"/><path class="cls-6" d="M711.83,556.37c-18.45,0-45.9-1.48-45.9-5.55H667c0,1.56,15.4,4.48,44.83,4.48H715v1.07Z" transform="translate(-31.21 -29.72)"/><path class="cls-6" d="M729.82,556l-.05-1.07c4.59-.22,8.81-.52,12.52-.89l.11,1.06C738.67,555.44,734.43,555.74,729.82,556Z" transform="translate(-31.21 -29.72)"/><path class="cls-6" d="M693.93,538.8c-17-1.55-17-3.7-17-4.4H678c0,.52,2.88,2.14,16.07,3.34Z" transform="translate(-31.21 -29.72)"/><path class="cls-6" d="M722.78,540c-5.1,0-10.11-.09-14.89-.28l.05-1.07c8.53.33,18,.37,26.76.1l0,1.07C730.84,539.89,726.82,540,722.78,540Z" transform="translate(-31.21 -29.72)"/><path class="cls-6" d="M746,539.24l-.08-1.07c4.84-.31,9.06-.73,12.55-1.22l.15,1.06C755.11,538.51,750.86,538.92,746,539.24Z" transform="translate(-31.21 -29.72)"/><path class="cls-6" d="M681.32,508.78c-15.12-1.54-15.12-3.49-15.12-4.22h1.07s.39,1.75,14.16,3.16Z" transform="translate(-31.21 -29.72)"/><path class="cls-6" d="M712.11,510.11c-5.22,0-10.32-.09-15.16-.28l0-1.08c4.83.19,9.91.29,15.12.29,9.31,0,18.25-.31,25.86-.9l.08,1.07C730.42,509.8,721.44,510.11,712.11,510.11Z" transform="translate(-31.21 -29.72)"/><path class="cls-11" d="M773.28,501.73c0,2.77-20.31,5-45.37,5s-45.37-2.25-45.37-5a.89.89,0,0,1,0-.15V488h90.69v13.53A.62.62,0,0,1,773.28,501.73Z" transform="translate(-31.21 -29.72)"/><ellipse class="cls-12" cx="696.7" cy="458.42" rx="45.37" ry="5.02"/><path class="cls-11" d="M764.86,488.15c0,1.86-16.54,3.37-37,3.37s-37-1.51-37-3.37,16.55-3.38,37-3.38S764.86,486.28,764.86,488.15Z" transform="translate(-31.21 -29.72)"/><path class="cls-12" d="M610.19,464A45.83,45.83,0,1,0,654.76,511,45.84,45.84,0,0,0,610.19,464Zm35.63,46.82a36.88,36.88,0,1,1-36.9-37.89l1,0a36.93,36.93,0,0,1,35.88,36.86C645.83,510.13,645.83,510.46,645.82,510.8Z" transform="translate(-31.21 -29.72)"/><path class="cls-11" d="M645.83,509.79c0,.34,0,.67,0,1a36.89,36.89,0,1,1-36.9-37.89l1,0A36.92,36.92,0,0,1,645.83,509.79Z" transform="translate(-31.21 -29.72)"/><path class="cls-12" d="M606.61,538v-6.94a20,20,0,0,1-10.52-3l1.65-4.6a18.34,18.34,0,0,0,9.9,3c4.88,0,8.18-2.82,8.18-6.74s-2.68-6.12-7.77-8.18c-7-2.75-11.34-5.91-11.34-11.89,0-5.7,4.06-10,10.38-11.06v-6.94h4.26v6.66a18.4,18.4,0,0,1,8.94,2.41l-1.72,4.53a16.69,16.69,0,0,0-8.66-2.33c-5.29,0-7.29,3.16-7.29,5.91,0,3.57,2.55,5.36,8.52,7.83,7.08,2.89,10.66,6.46,10.66,12.58,0,5.43-3.78,10.51-10.86,11.68V538Z" transform="translate(-31.21 -29.72)"/><path class="cls-6" d="M644.32,500.57c-.08-.3-.17-.6-.25-.9a36.46,36.46,0,0,0-19.58-22.9l.42-.9A37.39,37.39,0,0,1,645,499.33c.11.37.19.68.27,1Z" transform="translate(-31.21 -29.72)"/><path class="cls-6" d="M624.49,476.77a36.41,36.41,0,0,0-24.55-2.26l-.25-1a37.38,37.38,0,0,1,25.22,2.33Z" transform="translate(-31.21 -29.72)"/><path class="cls-6" d="M641.33,528.66l-.86-.51a36.24,36.24,0,0,0,4.69-13.41l1,.14A37.26,37.26,0,0,1,641.33,528.66Z" transform="translate(-31.21 -29.72)"/><path class="cls-6" d="M638.77,475.71A45.42,45.42,0,0,0,627,468.22l.43-1a46.35,46.35,0,0,1,12.1,7.67Z" transform="translate(-31.21 -29.72)"/><path class="cls-6" d="M634.81,548.28l-.6-.89a45.29,45.29,0,0,0,13-61.88l.91-.58a46.38,46.38,0,0,1-13.27,63.35Z" transform="translate(-31.21 -29.72)"/><path class="cls-6" d="M722.9,280.33h-1.07V259.92a4.84,4.84,0,0,0-4.83-4.83H625.7V254H717a5.9,5.9,0,0,1,5.9,5.9Z" transform="translate(-31.21 -29.72)"/><rect class="cls-6" x="690.61" y="261.33" width="1.07" height="11.81"/><rect class="cls-6" x="564.08" y="224.29" width="18.61" height="1.07"/><path class="cls-2" d="M281.14,143.55c7.41-6,14.24-13.27,17.45-22.26s2.11-20-4.66-26.75c-5.51-5.49-13.89-7.34-21.63-6.47s-15,4.16-21.89,7.75c-13.22,6.88-90.08,54.54-63.36,70.23C212.77,181.16,261.26,159.67,281.14,143.55Z" transform="translate(-31.21 -29.72)"/><path class="cls-6" d="M104.4,270.65l-.92-.55c10.84-18.08,28.3-30.35,55-38.61l.31,1C132.37,240.69,115.1,252.81,104.4,270.65Z" transform="translate(-31.21 -29.72)"/><path class="cls-6" d="M90.52,277.69l-1-.36c14-38.46,49.91-50.8,83.2-57.8l.22,1.05C139.93,227.51,104.33,239.73,90.52,277.69Z" transform="translate(-31.21 -29.72)"/><path class="cls-6" d="M575.11,53.67c-24.6-12.57-45.42-16-65.54-10.66l-.27-1c20.38-5.37,41.45-2,66.3,10.75Z" transform="translate(-31.21 -29.72)"/><path class="cls-6" d="M593.59,55c-28.46-18.08-62.47-34.2-98.87-16.66l-.47-1c36.88-17.76,71.2-1.51,99.92,16.73Z" transform="translate(-31.21 -29.72)"/><path class="cls-12" d="M459.48,103.83a45.83,45.83,0,1,0,44.57,47.05A45.82,45.82,0,0,0,459.48,103.83Zm35.64,46.81a36.88,36.88,0,1,1-36.9-37.89l1,0a36.93,36.93,0,0,1,35.89,36.86C495.13,150,495.13,150.31,495.12,150.64Z" transform="translate(-31.21 -29.72)"/><path class="cls-11" d="M495.13,149.63c0,.34,0,.68,0,1a36.88,36.88,0,1,1-36.9-37.89l1,0A36.93,36.93,0,0,1,495.13,149.63Z" transform="translate(-31.21 -29.72)"/><path class="cls-12" d="M455.91,177.85v-6.94a20.12,20.12,0,0,1-10.52-3l1.65-4.61a18.34,18.34,0,0,0,9.9,3c4.88,0,8.18-2.82,8.18-6.74s-2.68-6.11-7.77-8.17c-7-2.75-11.34-5.92-11.34-11.89,0-5.71,4.06-10,10.38-11.07v-6.94h4.26v6.67a18.22,18.22,0,0,1,8.93,2.4L467.86,135a16.53,16.53,0,0,0-8.65-2.34c-5.3,0-7.29,3.16-7.29,5.91,0,3.58,2.54,5.36,8.52,7.84,7.08,2.88,10.65,6.46,10.65,12.57,0,5.43-3.78,10.52-10.85,11.68v7.15Z" transform="translate(-31.21 -29.72)"/><path class="cls-6" d="M493.68,140.48c-.08-.31-.18-.63-.27-.94a36.41,36.41,0,0,0-19.56-22.85l.43-.91a37.43,37.43,0,0,1,20.09,23.47c.1.33.19.66.28,1Z" transform="translate(-31.21 -29.72)"/><path class="cls-6" d="M473.85,116.69a36.35,36.35,0,0,0-24.55-2.26l-.25-1a37.41,37.41,0,0,1,25.23,2.32Z" transform="translate(-31.21 -29.72)"/><path class="cls-6" d="M422.28,159.05a37.08,37.08,0,0,1,3.94-28.34l.86.5a36.17,36.17,0,0,0-3.84,27.58Z" transform="translate(-31.21 -29.72)"/><path class="cls-6" d="M488.07,116.39a44.9,44.9,0,0,0-11.82-7.49l.42-1a46.24,46.24,0,0,1,12.11,7.67Z" transform="translate(-31.21 -29.72)"/><path class="cls-6" d="M484.11,189l-.6-.89a45.3,45.3,0,0,0,13-61.89l.91-.58A46.39,46.39,0,0,1,484.11,189Z" transform="translate(-31.21 -29.72)"/><path class="cls-13" d="M451.88,248.37l4.06-17.4,16.57-6.9,2.95,24.3s-2.46,15.78-17.7,21.44S451.88,248.37,451.88,248.37Z" transform="translate(-31.21 -29.72)"/><path class="cls-13" d="M445.36,202.62s-5.91,32.71,3.68,32.95,17.47-3.44,19.43-5.65,3.45-13,3.45-13,1.23-14-4.68-16.72S448.55,192.78,445.36,202.62Z" transform="translate(-31.21 -29.72)"/><path class="cls-14" d="M476.91,223.43c-1.88,3.48-3.74,6.88-3.74,6.88-2.8-.44-5.91-3.94-6.45-7,0,0-8.82-.82-9.13-11.73,0,0-15.31.1-15.67-13.19s14.93-9.86,20-5.8,8.14,6.12,16,8.66C486.27,204,479.33,219,476.91,223.43Z" transform="translate(-31.21 -29.72)"/><path class="cls-13" d="M469.75,539.37,467.87,520H447.43l4.44,18.77s2.37,6.3,9.24,6.06A9.48,9.48,0,0,0,469.75,539.37Z" transform="translate(-31.21 -29.72)"/><path class="cls-13" d="M570.36,478.9l-15.69-11.44-13.59,15.26,20.11,10.19s2.49.49,7.53-3.89S570.36,478.9,570.36,478.9Z" transform="translate(-31.21 -29.72)"/><path class="cls-15" d="M487,526.06c-11.82,4.48-26.94,3.25-43.23,0-.47-1.13-.94-2.27-1.39-3.42-31-78.44-9.06-192.38-9.06-192.38h48.81L481,367.92a258,258,0,0,0-4.56,30C470.23,463.64,487,526.06,487,526.06Z" transform="translate(-31.21 -29.72)"/><path class="cls-16" d="M486.94,526c-.76-1.53-28.56-58-20.28-121.75l8.81,7.1C472.49,471,486.54,524.53,486.94,526Z" transform="translate(-31.21 -29.72)"/><path class="cls-15" d="M565.82,458.47c-4.48,12.57-9.25,22.34-14.44,28a17,17,0,0,1-7.51,5.2,169.22,169.22,0,0,1-20.6-12.41c-.85-.59-1.69-1.19-2.53-1.8-1.11-.82-2.21-1.64-3.27-2.47-.49-.37-1-.75-1.44-1.13-1-.75-1.91-1.53-2.83-2.29s-1.64-1.38-2.44-2.07a148.83,148.83,0,0,1-11.67-11.24q-.52-.56-1-1.11l-.74-.81h0c-49.23-54.72-40.2-126.11-40.2-126.11h42.82C503.61,398.71,565.82,458.47,565.82,458.47Z" transform="translate(-31.21 -29.72)"/><path class="cls-13" d="M509.55,182.05c-3.66-2.67-6.21-4.14-6.82-4.58-.78-.56-1-1.94-1.87-3.34-2.09-3.2-6.44-8.87-10.94-10.45-.57-.2-1,.41-.4,1.07,1.1,1.21,3.18,2.95,2.86,3.24-.69.58-5.56-5.27-6.93-3.91-1,1,6,6.25,5.74,6.58-.55.65-5.85-5.33-7.15-4s5.15,4.64,4.87,5.21-4.7-3.08-5.57-2.25c-1.32,1.26,6.64,6.2,6.42,6.92-.28,1.19-4.39-1.28-5,.11s5.16,3.79,6.25,4.33c2.51,1.27,4.34.72,6.36,3.85,1.1,1.73,2.2,3.44,3.28,5.17Z" transform="translate(-31.21 -29.72)"/><path class="cls-13" d="M408.7,186c3.35-3,5.72-4.78,6.29-5.28s.74-2,1.5-3.52c1.73-3.41,5.45-9.51,9.75-11.56.55-.27,1.06.29.52,1-1,1.32-2.85,3.27-2.5,3.53.75.5,5-5.84,6.47-4.64,1.14.91-5.31,6.86-5,7.16.62.59,5.25-5.92,6.68-4.72s-4.62,5.17-4.28,5.7,4.34-3.56,5.3-2.83c1.44,1.11-5.94,6.87-5.65,7.57.41,1.15,4.23-1.75,5-.43s-4.73,4.32-5.75,5c-2.37,1.52-4.25,1.17-5.92,4.51-.91,1.83-1.82,3.65-2.71,5.48Z" transform="translate(-31.21 -29.72)"/><path class="cls-16" d="M500.38,335.84a122.13,122.13,0,0,1-18.75,9.78,86.39,86.39,0,0,1-25,6.46,49.46,49.46,0,0,1-26.12-4.29c.53-4,1.05-7.4,1.48-10.11a55.14,55.14,0,0,0,24.46,6.05,90.58,90.58,0,0,0,25.31-3.18,131.54,131.54,0,0,0,18.44-6.36C500.27,334.74,500.32,335.3,500.38,335.84Z" transform="translate(-31.21 -29.72)"/><path class="cls-17" d="M422.49,330.65V276.79s-48.41-8.22-38.9-55.09c6-29.79,27.3-40.42,27.3-40.42l11.79,9.47s-25.06,38.32,7.93,51.62c0,0,18.56-.58,23.39,4.64,0,0,10.64,8.51,21.85-5.6,0,0,11.41-4.45,21.13-1.84,8,2.15,18.31-17.69-.83-51.33l12-10.83s70.18,67.48,1.35,100.92l-3.84,53.82S452.37,362.36,422.49,330.65Z" transform="translate(-31.21 -29.72)"/><circle class="cls-13" cx="433.38" cy="191.77" r="3.82"/><path class="cls-4" d="M475,424.73A172.53,172.53,0,0,1,457.51,367l.84-.11a171.79,171.79,0,0,0,17.42,57.45Z" transform="translate(-31.21 -29.72)"/><path class="cls-4" d="M498,363.06a19.17,19.17,0,0,1-17.93-11.89l.8-.29a18.27,18.27,0,0,0,17.76,11.32l0,.85Z" transform="translate(-31.21 -29.72)"/><path class="cls-6" d="M460.76,254q-.37,0-.75,0c-6.09-.57-9.17-7.68-9.3-8l.79-.33c0,.07,3,6.95,8.59,7.46,4.69.43,9.87-3.6,15.41-12l.71.47C470.76,249.87,465.57,254,460.76,254Z" transform="translate(-31.21 -29.72)"/><path class="cls-10" d="M422.5,276.79s-48.42-8.22-38.91-55.09a66,66,0,0,1,1.88-7.28c.11-.13.24-.26.36-.38-.8,10.58-1.18,19.85,3.51,29.87C399.14,264.87,423.16,276.74,422.5,276.79Z" transform="translate(-31.21 -29.72)"/><path class="cls-10" d="M509.49,278.33l-3.84,53.82a117.15,117.15,0,0,1-25.95,10.11c2.58-1.95,13.4-18.5,15.22-26.87,3.25-15,3.66-23.65,4.07-39.64,16-4.16,34.28-18.27,40.56-41.82C541,250,534.15,266.34,509.49,278.33Z" transform="translate(-31.21 -29.72)"/><path class="cls-6" d="M458.3,339.49h-.24v-.85c.23,0,22.73.31,42.21-11.57l.44.73C482.13,339.14,460.83,339.49,458.3,339.49Z" transform="translate(-31.21 -29.72)"/><path class="cls-16" d="M551.38,486.51a17,17,0,0,1-7.51,5.2,169.22,169.22,0,0,1-20.6-12.41c-.85-.59-1.69-1.19-2.53-1.8-1.11-.82-2.21-1.64-3.27-2.47-.49-.37-1-.75-1.44-1.13-1-.75-1.91-1.53-2.83-2.29s-1.64-1.38-2.44-2.07a148.83,148.83,0,0,1-11.67-11.24q-.52-.56-1-1.11l-.74-.81C526.61,480.58,545.34,485.52,551.38,486.51Z" transform="translate(-31.21 -29.72)"/><path class="cls-4" d="M559.48,456.76c-20.61-13.39-33.71-37.57-33.84-37.81l.71-.38c.13.24,13.13,24.24,33.57,37.51Z" transform="translate(-31.21 -29.72)"/><path class="cls-14" d="M472.34,554.76H426a2.78,2.78,0,0,1-2.78-3v-.06c0-.35.08-.72.13-1.08a7.3,7.3,0,0,1,1.07-3.24c2.2-2.92,6.47-4.25,14.07-7.26a61.83,61.83,0,0,0,10.6-5.59,1.47,1.47,0,0,1,1.84.19c9.16,9,14.79,7,16.48,3.35,1.28-2.82,3.1-2.23,3.61-1.4,1.54,2.58,2.39,10.15,2.73,13.95,0,.41.08.78.1,1.08l.08,1.14A1.61,1.61,0,0,1,472.34,554.76Z" transform="translate(-31.21 -29.72)"/><path class="cls-4" d="M441.1,545a4.93,4.93,0,0,1-2.79-5l.79.13a4.08,4.08,0,0,0,2.35,4.18Z" transform="translate(-31.21 -29.72)"/><path class="cls-4" d="M437,546.38a5,5,0,0,1-2.69-4.79l.79.1a4.22,4.22,0,0,0,2.29,4Z" transform="translate(-31.21 -29.72)"/><path class="cls-4" d="M463.19,544.36a14.72,14.72,0,0,1-5.95-1.44l.37-.71c.07,0,7.1,3.57,10.72-.93l.62.5A7,7,0,0,1,463.19,544.36Z" transform="translate(-31.21 -29.72)"/><rect class="cls-4" x="409.97" y="521.43" width="27.01" height="0.8"/><rect class="cls-4" x="400.11" y="521.43" width="6.39" height="0.8"/><path class="cls-14" d="M584.18,481.69l-22.65,40.44a2.77,2.77,0,0,1-3.95,1l0,0c-.3-.2-.59-.41-.89-.64a7.38,7.38,0,0,1-2.3-2.52c-1.47-3.34-.54-7.71.54-15.82a62.22,62.22,0,0,0,.3-12,1.47,1.47,0,0,1,1.06-1.5c12.3-3.62,13.38-9.46,11-12.74-1.83-2.5-.43-3.8.54-3.84,3-.08,10,2.87,13.49,4.43l1,.44,1,.48A1.63,1.63,0,0,1,584.18,481.69Z" transform="translate(-31.21 -29.72)"/><path class="cls-4" d="M556.19,504.6a7.66,7.66,0,0,1-1.38-.12l.16-.79s3.34.67,5-1.47l.63.49A5.41,5.41,0,0,1,556.19,504.6Z" transform="translate(-31.21 -29.72)"/><path class="cls-4" d="M555.83,509a7.7,7.7,0,0,1-1.39-.12l.17-.79s3.33.67,5-1.47l.64.49A5.42,5.42,0,0,1,555.83,509Z" transform="translate(-31.21 -29.72)"/><path class="cls-4" d="M567.28,489.11l-.52-.61c.06-.05,6-5.22,3.21-10.27l.7-.39C573.78,483.47,567.35,489.06,567.28,489.11Z" transform="translate(-31.21 -29.72)"/><rect class="cls-4" x="558.8" y="496.09" width="27.01" height="0.8" transform="translate(-168.93 731.16) rotate(-61.37)"/><rect class="cls-4" x="559.46" y="513.79" width="6.39" height="0.8" transform="translate(-189.5 731.9) rotate(-61.37)"/><path class="cls-6" d="M430.46,242.89c-.41-.12-10.31-3-15.44-12.47-3.55-6.52-3.9-14.51-1.06-23.74l1,.31c-2.75,8.94-2.42,16.65,1,22.9,4.92,9.06,14.71,11.94,14.81,12Z" transform="translate(-31.21 -29.72)"/><path class="cls-14" d="M455.56,212.24c-3.73,0-9.6-1.59-12.67-5.42-1.9-2.37-3.45-6.56,0-13l.72.38c-2.58,4.89-2.6,9-.06,12.16,3.56,4.44,11.07,5.7,14,4.91l.22.78A8.64,8.64,0,0,1,455.56,212.24Z" transform="translate(-31.21 -29.72)"/><path class="cls-14" d="M452.11,213a16.21,16.21,0,0,1-9-2.93l.44-.67c8.79,5.8,15.53.8,15.6.75l.48.64A13.4,13.4,0,0,1,452.11,213Z" transform="translate(-31.21 -29.72)"/><path class="cls-3" d="M66.36,345.81c0,.3,0,.59,0,.9.85,36.9,6.13,65.42,13.7,87.46L99.68,445l-15.74-1.6-.45,0c9.76,24.15,22.3,39.42,33.9,49.06a81.12,81.12,0,0,0,19.66,12.26l1.09.46c.9.38,1.77.71,2.59,1H151.2q.18-.74.33-1.47c.08-.31.14-.62.2-.93s.18-.82.26-1.22c9.85-48.21-7.69-85.33-29.42-111.31a2.32,2.32,0,0,0-.21-.25,183,183,0,0,0-23.22-23l-4,12-1.52-16.43A182,182,0,0,0,67,346.12Z" transform="translate(-31.21 -29.72)"/><polygon class="cls-4" points="34.78 316.28 35.17 316.98 58.96 360.77 59.39 361.54 65.88 373.48 66.1 373.88 86.78 411.93 86.81 411.99 120.52 474.01 121.03 474.94 121.83 476.41 122.75 476.41 121.95 474.94 120.78 472.78 87.51 411.58 86.89 410.44 35.77 316.4 35.49 315.89 34.78 316.28"/><rect class="cls-4" x="83.12" y="379.1" width="0.7" height="32.32" transform="translate(-328.32 230.03) rotate(-58.48)"/><rect class="cls-4" x="79.5" y="371.89" width="0.7" height="25.33" transform="translate(-320.92 221.84) rotate(-58.48)"/><polygon class="cls-4" points="90.07 415.12 94.05 364.6 93.27 364.54 89.3 415.06 90.07 415.12"/><path class="cls-5" d="M156.21,516.2s-24.14,13-60.45-6.16l11.13-6-18.6,1.73c-14.24-8.9-30.1-22.76-46.91-44l4.25-2.29L40,460q-4.26-5.44-8.59-11.55a136.48,136.48,0,0,1,25.16-.52l8.13,9.88L62,448.36C92.51,451.36,137.35,464.9,156.21,516.2Z" transform="translate(-31.21 -29.72)"/><rect class="cls-4" x="94.29" y="409.88" width="0.79" height="142.46" transform="translate(-407.46 314.79) rotate(-62.69)"/><rect class="cls-4" x="46.77" y="466.74" width="17.7" height="0.74" transform="translate(-102.66 -15.53) rotate(-8.88)"/><rect class="cls-4" x="52.45" y="472.05" width="20.86" height="0.74" transform="translate(-136.65 -3.18) rotate(-13.1)"/><rect class="cls-17" x="103.96" y="338.8" width="240.57" height="170.03" rx="9.8"/><path class="cls-6" d="M368.44,386.17V520.91a10.32,10.32,0,0,1-10.33,10.32H342.53V384.57H148.45a4.37,4.37,0,0,1-4.37-4.36h0a4.37,4.37,0,0,1,4.37-4.37H358.11A10.33,10.33,0,0,1,368.44,386.17Z" transform="translate(-31.21 -29.72)"/><path class="cls-11" d="M309.49,370.73l.63.79a36.89,36.89,0,1,1-52.55-6c.26-.22.53-.43.8-.64A36.93,36.93,0,0,1,309.49,370.73Z" transform="translate(-31.21 -29.72)"/><path class="cls-12" d="M278.61,422.78v-6.94a20.11,20.11,0,0,1-10.51-3l1.65-4.61a18.31,18.31,0,0,0,9.9,3c4.88,0,8.17-2.82,8.17-6.74s-2.68-6.12-7.76-8.18c-7-2.75-11.34-5.91-11.34-11.89,0-5.7,4-10,10.38-11.06v-6.94h4.26V373a18.22,18.22,0,0,1,8.93,2.4L290.57,380a16.54,16.54,0,0,0-8.66-2.34c-5.29,0-7.28,3.16-7.28,5.91,0,3.57,2.54,5.36,8.52,7.83,7.08,2.89,10.65,6.46,10.65,12.58,0,5.43-3.78,10.51-10.86,11.68v7.15Z" transform="translate(-31.21 -29.72)"/><path class="cls-12" d="M292.53,349.75a45.83,45.83,0,1,0,32.74,55.93A45.81,45.81,0,0,0,292.53,349.75Zm24.09,53.67a36.88,36.88,0,1,1-27.34-45.27l1,.25a36.93,36.93,0,0,1,26.59,44C316.78,402.77,316.71,403.1,316.62,403.42Z" transform="translate(-31.21 -29.72)"/><path class="cls-12" d="M213.77,314a45.83,45.83,0,1,0,44.57,47.06A45.83,45.83,0,0,0,213.77,314Zm35.63,46.82A36.89,36.89,0,1,1,212.5,323l1,0a36.91,36.91,0,0,1,35.88,36.86C249.41,360.17,249.41,360.51,249.4,360.85Z" transform="translate(-31.21 -29.72)"/><path class="cls-11" d="M241.07,336.49l.64.78a36.89,36.89,0,1,1-52.56-6c.27-.22.54-.42.81-.63A36.91,36.91,0,0,1,241.07,336.49Z" transform="translate(-31.21 -29.72)"/><path class="cls-12" d="M210.19,388.06v-6.94a20,20,0,0,1-10.52-3l1.65-4.6a18.34,18.34,0,0,0,9.9,2.95c4.88,0,8.18-2.82,8.18-6.73s-2.68-6.12-7.77-8.18c-7-2.75-11.34-5.91-11.34-11.89,0-5.7,4.06-10,10.38-11.06v-6.94h4.26v6.66a18.4,18.4,0,0,1,8.94,2.41l-1.72,4.53a16.69,16.69,0,0,0-8.66-2.33c-5.29,0-7.29,3.16-7.29,5.91,0,3.57,2.55,5.36,8.53,7.83,7.07,2.89,10.65,6.46,10.65,12.58,0,5.43-3.78,10.51-10.86,11.68v7.15Z" transform="translate(-31.21 -29.72)"/><path class="cls-6" d="M242.35,326.06a45.42,45.42,0,0,0-11.82-7.49l.43-1a46.35,46.35,0,0,1,12.1,7.67Z" transform="translate(-31.21 -29.72)"/><path class="cls-6" d="M238.39,398.63l-.6-.89a45.31,45.31,0,0,0,13-61.88l.9-.58a46.38,46.38,0,0,1-13.27,63.35Z" transform="translate(-31.21 -29.72)"/><path class="cls-6" d="M247.55,350.44c-.08-.31-.17-.62-.26-.93a36.41,36.41,0,0,0-19.57-22.87l.43-.9a37.38,37.38,0,0,1,20.09,23.46c.1.35.2.67.28,1Z" transform="translate(-31.21 -29.72)"/><path class="cls-6" d="M227.72,326.64a36.47,36.47,0,0,0-24.55-2.26l-.25-1a37.35,37.35,0,0,1,25.23,2.32Z" transform="translate(-31.21 -29.72)"/><path class="cls-6" d="M244.56,378.53l-.86-.51a36.24,36.24,0,0,0,4.69-13.41l1,.14A37.26,37.26,0,0,1,244.56,378.53Z" transform="translate(-31.21 -29.72)"/><rect class="cls-17" x="103.96" y="355.02" width="224.89" height="167.88" rx="9.5"/><path class="cls-6" d="M221,546H153.39a9.24,9.24,0,0,1-9.23-9.23v-13h1.07v13a8.17,8.17,0,0,0,8.16,8.16H221Z" transform="translate(-31.21 -29.72)"/><rect class="cls-6" x="206.25" y="515.22" width="20.85" height="1.07"/><path class="cls-6" d="M351.07,418.52H350V400.57a8.17,8.17,0,0,0-8.16-8.16H253.52v-1.07h88.32a9.24,9.24,0,0,1,9.23,9.23Z" transform="translate(-31.21 -29.72)"/><rect class="cls-6" x="186.5" y="361.62" width="19.92" height="1.07"/><rect class="cls-6" x="112.95" y="454.47" width="1.07" height="25.34"/><path class="cls-15" d="M375.46,434.21v47.44a10.77,10.77,0,0,1-10.78,10.78h-41a23.76,23.76,0,1,1,0-47.51h41c.3,0,.6,0,.9,0A10.78,10.78,0,0,0,375.46,434.21Z" transform="translate(-31.21 -29.72)"/><circle class="cls-4" cx="321.46" cy="468.68" r="11.09" transform="translate(-268.46 334.86) rotate(-45)"/><path class="cls-6" d="M321.46,480.3v-1.07a10.55,10.55,0,0,0,0-21.1v-1.07a11.62,11.62,0,1,1,0,23.24Z" transform="translate(-31.21 -29.72)"/><path class="cls-6" d="M310.91,468.68h-1.07a11.57,11.57,0,0,1,3.4-8.22l.76.76A10.48,10.48,0,0,0,310.91,468.68Z" transform="translate(-31.21 -29.72)"/><path class="cls-6" d="M130.79,477.78a97.16,97.16,0,0,0-19.44-14.21l.52-.94A98.29,98.29,0,0,1,131.53,477Z" transform="translate(-31.21 -29.72)"/><path class="cls-6" d="M99.64,457.94a123,123,0,0,0-12.23-4.24l.3-1A122.47,122.47,0,0,1,100,457Z" transform="translate(-31.21 -29.72)"/><path class="cls-18" d="M366.33,160.45a115.08,115.08,0,0,0-53.59-1.86A112.64,112.64,0,0,0,287.11,167a115,115,0,0,0-23,14.17A114.14,114.14,0,0,0,231,223.4c-.94,2-1.77,4.15-2.64,6.23s-1.58,4.23-2.24,6.38a118,118,0,0,0-3.41,13.08c-.42,2.21-.82,4.43-1.11,6.67-.08.56-.16,1.11-.22,1.67l-.07.61-.05.37c0,.49-.12,1-.16,1.48l-8.35-.84a108.07,108.07,0,0,0,13.15,24.05,95.65,95.65,0,0,1,13-21.41l-8.35-.84c0-.46.1-.91.15-1.36l0-.34.07-.55c0-.52.13-1,.2-1.54.27-2.05.63-4.09,1-6.12a107.53,107.53,0,0,1,3.13-12c.61-2,1.38-3.9,2.06-5.86s1.56-3.83,2.42-5.71a108,108,0,0,1,12.87-21.15A106.57,106.57,0,0,1,270,188.68a105.14,105.14,0,0,1,21.09-13,103.55,103.55,0,0,1,23.51-7.75,105.43,105.43,0,0,1,49.15,1.71Z" transform="translate(-31.21 -29.72)"/><path class="cls-6" d="M278.36,171.71l-.51-.85c2.78-1.68,5.67-3.25,8.59-4.67A107.23,107.23,0,0,1,310,158.12a105.82,105.82,0,0,1,24.77-2.38,104.32,104.32,0,0,1,24.65,3.42l-.26,1a102.74,102.74,0,0,0-24.4-3.39,104.35,104.35,0,0,0-24.54,2.36,106.53,106.53,0,0,0-23.32,8C284,168.5,281.12,170.05,278.36,171.71Z" transform="translate(-31.21 -29.72)"/><path class="cls-6" d="M257,188.7l-.73-.69c.91-1,1.89-1.9,2.83-2.8.54-.52,1.08-1,1.61-1.56s.92-.81,1.37-1.2c1.09-1,2.22-1.95,3.36-2.89l.64.77c-1.14.93-2.26,1.91-3.34,2.87-.45.39-.89.79-1.35,1.18s-1.05,1-1.6,1.56C258.88,186.82,257.91,187.75,257,188.7Z" transform="translate(-31.21 -29.72)"/><path class="cls-6" d="M226.05,284.1l-.52-.7a108.4,108.4,0,0,1-11.72-20.12l.92-.41a107.44,107.44,0,0,0,11.09,19.24,97.81,97.81,0,0,1,8.25-14.91l.83.55a97.18,97.18,0,0,0-8.51,15.55Z" transform="translate(-31.21 -29.72)"/><path class="cls-6" d="M221.63,259.93l-1-.07a93,93,0,0,1,3.6-19.18l1,.3A91.13,91.13,0,0,0,221.63,259.93Z" transform="translate(-31.21 -29.72)"/><path class="cls-12" d="M152,461.89A45.83,45.83,0,1,0,207.9,494.7,45.82,45.82,0,0,0,152,461.89ZM199.25,497a36.89,36.89,0,1,1-46-26.15l1-.27A36.92,36.92,0,0,1,199,496C199.07,496.31,199.17,496.63,199.25,497Z" transform="translate(-31.21 -29.72)"/><path class="cls-11" d="M199,496c.09.32.19.64.27,1a36.89,36.89,0,1,1-46-26.15l1-.27A36.92,36.92,0,0,1,199,496Z" transform="translate(-31.21 -29.72)"/><path class="cls-6" d="M195.65,539.66l-.7-.72a45.36,45.36,0,0,0,5.24-59.4L201,479a45.78,45.78,0,0,1,7.38,15.63A46.4,46.4,0,0,1,195.65,539.66Zm-6-70.5a45.23,45.23,0,0,0-14.19-6.67l.26-1a46.49,46.49,0,0,1,14.51,6.82Z" transform="translate(-31.21 -29.72)"/><path class="cls-12" d="M169.14,534l-1.93-6.67a20,20,0,0,1-10.94,0l.31-4.88a18.38,18.38,0,0,0,10.33.09c4.68-1.36,7.07-5,6-8.74s-4.27-5.14-9.73-5.7c-7.5-.7-12.54-2.53-14.2-8.27-1.58-5.48,1.11-10.77,6.9-13.52l-1.93-6.66,4.09-1.19,1.85,6.41a18.28,18.28,0,0,1,9.26-.17l-.4,4.83a16.61,16.61,0,0,0-9,.16c-5.09,1.47-6.12,5.06-5.36,7.7,1,3.44,3.93,4.45,10.36,5.16,7.61.81,12,3.25,13.73,9.12,1.51,5.22-.71,11.15-7.18,14.24l2,6.87Z" transform="translate(-31.21 -29.72)"/><path class="cls-19" d="M130.88,480.62a16,16,0,0,1,7.31,7.67h0a16.08,16.08,0,0,1,7.32-7.68h0a16.06,16.06,0,0,1-7.32-7.67h0A16.06,16.06,0,0,1,130.88,480.62Z" transform="translate(-31.21 -29.72)"/><path class="cls-19" d="M145.86,492.53a9.38,9.38,0,0,1,4.25,4.46h0a9.29,9.29,0,0,1,4.25-4.46h0a9.33,9.33,0,0,1-4.25-4.46h0A9.38,9.38,0,0,1,145.86,492.53Z" transform="translate(-31.21 -29.72)"/><path class="cls-6" d="M198.77,497.08l-.27-1a36.43,36.43,0,0,0-19.56-22.83l.43-.91a37.43,37.43,0,0,1,20.09,23.47c.1.32.19.65.28,1Z" transform="translate(-31.21 -29.72)"/><path class="cls-6" d="M178.94,473.29A36.35,36.35,0,0,0,154.39,471l-.25-1a37.41,37.41,0,0,1,25.23,2.32Z" transform="translate(-31.21 -29.72)"/><path class="cls-6" d="M127.37,515.65a37.08,37.08,0,0,1,3.94-28.34l.86.5a36.17,36.17,0,0,0-3.84,27.58Z" transform="translate(-31.21 -29.72)"/><path class="cls-6" d="M195.78,525.17l-.86-.5a36.3,36.3,0,0,0,4.69-13.41l1,.14A37.22,37.22,0,0,1,195.78,525.17Z" transform="translate(-31.21 -29.72)"/><path class="cls-19" d="M179.41,334.22a16,16,0,0,1,7.31,7.67h0A16.2,16.2,0,0,1,194,334.2h0a16.18,16.18,0,0,1-7.32-7.66h0A16.11,16.11,0,0,1,179.41,334.22Z" transform="translate(-31.21 -29.72)"/><path class="cls-19" d="M228.78,376.26a9.34,9.34,0,0,1,4.24,4.45h0a9.4,9.4,0,0,1,4.26-4.46h0a9.4,9.4,0,0,1-4.26-4.46h0A9.38,9.38,0,0,1,228.78,376.26Z" transform="translate(-31.21 -29.72)"/><path class="cls-19" d="M431.7,120.18a16,16,0,0,1,7.31,7.67h0a16.1,16.1,0,0,1,7.32-7.69h0A16.09,16.09,0,0,1,439,112.5h0A16.11,16.11,0,0,1,431.7,120.18Z" transform="translate(-31.21 -29.72)"/><path class="cls-19" d="M626.09,521.24a16.06,16.06,0,0,1,7.31,7.66h0a16.22,16.22,0,0,1,7.32-7.68h0a16.15,16.15,0,0,1-7.32-7.67h0A16.13,16.13,0,0,1,626.09,521.24Z" transform="translate(-31.21 -29.72)"/><path class="cls-19" d="M621.15,544.19a9.38,9.38,0,0,1,4.25,4.46h0a9.35,9.35,0,0,1,4.25-4.47h0a9.31,9.31,0,0,1-4.25-4.45h0A9.38,9.38,0,0,1,621.15,544.19Z" transform="translate(-31.21 -29.72)"/></svg>