<?xml version="1.0" encoding="iso-8859-1"?>
<!-- Uploaded to: SVG Repo, www.svgrepo.com, Generator: SVG Repo Mixer Tools -->
<svg height="800px" width="800px" version="1.1" id="Layer_1" xmlns="http://www.w3.org/2000/svg" xmlns:xlink="http://www.w3.org/1999/xlink" 
	 viewBox="0 0 512 512" xml:space="preserve">
<g>
	<g>
		<path style="fill:#FFD72E;" d="M330.67,501.333c70.499,0,127.999-57.498,127.999-127.997c0-70.502-57.5-128.002-127.999-128.002
			c-70.503,0-128.004,57.5-128.004,128.002C202.666,443.835,260.167,501.333,330.67,501.333z"/>
		<ellipse style="fill:#FFD72E;" cx="181.335" cy="50.667" rx="128.001" ry="40"/>
	</g>
	<path style="fill:#FF9600;" d="M309.333,50.667v196.449c-60.537,10.158-106.666,62.795-106.666,126.221
		c0,13.628,2.139,26.758,6.083,39.074c-8.834,0.604-18.005,0.925-27.417,0.925c-70.692,0-128.002-17.908-128.002-39.999V50.667
		c0,22.093,57.31,40,128.002,40S309.333,72.76,309.333,50.667z"/>
</g>
<g>
	<path style="fill:#000003;" d="M362.793,370.325c-8.931-6.056-19.95-9.096-30.604-12.036c-2.325-0.642-4.642-1.281-6.912-1.948
		c-13.034-3.832-21.392-11.394-22.359-20.232c-0.781-7.148,3.521-14.043,11.506-18.443c1.687-0.929,3.567-1.623,5.579-2.115v15.866
		c0,5.89,4.776,10.667,10.667,10.667c5.889,0,10.667-4.777,10.667-10.667v-15.086c6.227,1.535,12.293,4.01,17.261,7.014
		c5.04,3.052,11.598,1.439,14.648-3.602c3.05-5.04,1.438-11.598-3.602-14.648c-7.893-4.778-17.888-8.703-28.306-10.594v-7.668
		c0-5.89-4.778-10.667-10.667-10.667c-5.891,0-10.667,4.777-10.667,10.667v7.022c-5.596,0.789-10.979,2.429-15.873,5.125
		c-15.552,8.57-24.142,23.684-22.419,39.447c1.934,17.691,15.971,32.038,37.55,38.381c0.244,0.071,0.496,0.141,0.741,0.212v50.224
		c-8.827-1.471-16.131-5.21-18.471-9.715c-2.713-5.229-9.15-7.268-14.379-4.556s-7.269,9.151-4.557,14.38
		c6.488,12.504,21.537,19.548,37.406,21.346v11.136c0,5.89,4.776,10.667,10.667,10.667c5.889,0,10.667-4.777,10.667-10.667V447.93
		c2.212-0.429,4.371-0.962,6.442-1.615c16.732-5.273,29.176-19.829,31.701-37.085C381.779,393.515,375.541,378.971,362.793,370.325z
		 M358.371,406.142c-1.348,9.214-8.022,16.996-17.004,19.826c-0.009,0.003-0.019,0.005-0.029,0.01v-42.602
		c3.587,1.325,6.848,2.821,9.484,4.607C359.202,393.667,358.894,402.575,358.371,406.142z"/>
	<path style="fill:#000003;" d="M330.67,234.668c-3.589,0-7.15,0.138-10.671,0.406V50.667c0-11.136-7.804-26.849-44.975-38.466
		C249.846,4.334,216.572,0,181.333,0S112.819,4.334,87.64,12.202C50.468,23.818,42.664,39.531,42.664,50.667v322.669
		c0,11.135,7.803,26.848,44.976,38.464c25.179,7.868,58.453,12.202,93.693,12.202c6.717,0,13.434-0.169,20.066-0.489
		C221.551,475.243,271.896,512,330.67,512c76.461,0,138.666-62.204,138.666-138.664C469.336,296.874,407.132,234.668,330.67,234.668
		z M249.946,192.2c-0.926-5.819-6.408-9.781-12.211-8.856c-17.305,2.756-36.808,4.213-56.402,4.213
		c-33.139,0-64.155-3.988-87.329-11.23c-24.494-7.654-30.007-15.839-30.007-18.103V79.256c6.111,3.471,13.849,6.817,23.643,9.877
		c25.179,7.868,58.453,12.201,93.692,12.201S249.845,97,275.024,89.134c9.794-3.06,17.531-6.406,23.642-9.877v25.191
		c0,2.263-5.513,10.449-30.005,18.104c-23.176,7.241-54.188,11.229-87.329,11.229c-15.38,0-30.396-0.866-44.631-2.572
		c-5.846-0.707-11.16,3.472-11.86,9.321c-0.701,5.849,3.472,11.16,9.321,11.86c15.074,1.807,30.944,2.724,47.171,2.724
		c35.24,0,68.513-4.334,93.691-12.202c9.794-3.06,17.531-6.406,23.642-9.876V212c0,2.265-5.513,10.45-30.005,18.105
		c-23.175,7.242-54.188,11.229-87.329,11.229s-64.156-3.987-87.329-11.229C69.51,222.45,63.997,214.264,63.997,212v-25.187
		c6.111,3.47,13.849,6.817,23.643,9.877c25.179,7.868,58.453,12.202,93.693,12.202c20.994,0,41.099-1.507,59.757-4.48
		C246.909,203.485,250.872,198.018,249.946,192.2z M63.997,240.591c6.111,3.47,13.849,6.817,23.643,9.877
		c25.178,7.867,58.452,12.201,93.693,12.201c28.082,0,54.901-2.759,77.383-7.858c-12.521,7.61-23.87,17.207-33.529,28.512
		c-2.79,3.267-5.412,6.653-7.872,10.142c-11.6,1.092-23.705,1.649-35.982,1.649c-15.38,0-30.396-0.865-44.631-2.572
		c-5.846-0.702-11.16,3.471-11.86,9.321c-0.701,5.849,3.472,11.16,9.321,11.86c15.074,1.807,30.944,2.724,47.171,2.724
		c7.819,0,15.561-0.241,23.183-0.665c-0.079,0.173-0.16,0.346-0.239,0.518c-0.004,0.011-0.01,0.019-0.014,0.03
		c-0.375,0.833-0.74,1.669-1.1,2.51c-0.102,0.239-0.208,0.476-0.308,0.716c-0.166,0.394-0.324,0.79-0.486,1.186
		c-3.658,8.89-6.424,18.237-8.172,27.934c-4.273,0.138-8.573,0.215-12.865,0.215c-33.141,0-64.155-3.988-87.329-11.23
		c-24.494-7.654-30.007-15.84-30.007-18.104v-78.968H63.997z M94.004,32.563c23.175-7.242,54.188-11.23,87.329-11.23
		c33.139,0,64.154,3.988,87.329,11.23c24.492,7.654,30.005,15.84,30.005,18.104c0,2.265-5.513,10.45-30.005,18.105
		c-23.175,7.241-54.188,11.229-87.329,11.229s-64.155-3.988-87.329-11.23C69.51,61.117,63.997,52.932,63.997,50.667
		C63.997,48.404,69.51,40.218,94.004,32.563z M195.066,402.432c-4.556,0.157-9.145,0.237-13.733,0.237
		c-33.139,0-64.155-3.988-87.329-11.23c-24.494-7.654-30.007-15.839-30.007-18.103v-25.19c6.111,3.47,13.849,6.817,23.643,9.877
		c25.178,7.868,58.453,12.202,93.693,12.202c3.569,0,7.144-0.05,10.706-0.141c-0.025,1.084-0.039,2.166-0.039,3.252
		c0,1.214,0.017,2.423,0.048,3.629c0.01,0.377,0.029,0.752,0.043,1.129c0.028,0.83,0.055,1.661,0.098,2.486
		c0.023,0.455,0.059,0.91,0.086,1.363c0.046,0.743,0.09,1.489,0.146,2.229c0.039,0.502,0.09,1.002,0.134,1.503
		c0.062,0.69,0.119,1.381,0.191,2.067c0.057,0.542,0.124,1.083,0.187,1.622c0.074,0.639,0.145,1.279,0.227,1.916
		c0.076,0.59,0.163,1.179,0.247,1.766c0.082,0.577,0.162,1.156,0.252,1.731c0.101,0.644,0.211,1.286,0.321,1.929
		c0.086,0.51,0.172,1.021,0.263,1.53c0.128,0.703,0.267,1.404,0.405,2.106c0.085,0.433,0.17,0.867,0.259,1.298
		C194.962,401.904,195.01,402.169,195.066,402.432z M330.67,490.666c-52.551,0-97.143-34.723-112.037-82.429
		c-0.181-0.58-0.35-1.164-0.522-1.746c-0.288-0.976-0.563-1.957-0.827-2.943c-0.176-0.662-0.347-1.326-0.512-1.99
		c-0.135-0.548-0.275-1.094-0.403-1.647c-0.259-1.12-0.501-2.244-0.729-3.373c-0.093-0.461-0.179-0.924-0.267-1.387
		c-0.185-0.981-0.358-1.965-0.517-2.95c-0.05-0.308-0.106-0.614-0.153-0.923c-0.194-1.255-0.362-2.515-0.514-3.777
		c-0.044-0.367-0.085-0.734-0.126-1.101c-0.135-1.223-0.258-2.449-0.355-3.677c-0.009-0.108-0.02-0.214-0.028-0.322
		c-0.102-1.329-0.175-2.662-0.231-3.998c-0.015-0.335-0.027-0.67-0.038-1.005c-0.047-1.351-0.078-2.705-0.078-4.062
		c0-1.627,0.044-3.244,0.109-4.856c0.011-0.263,0.018-0.529,0.03-0.791c0.068-1.453,0.17-2.899,0.291-4.338
		c0.038-0.453,0.077-0.906,0.121-1.357c0.122-1.278,0.266-2.55,0.427-3.815c0.089-0.685,0.188-1.365,0.288-2.046
		c0.091-0.625,0.193-1.247,0.293-1.869c0.247-1.514,0.517-3.02,0.823-4.513c0.003-0.018,0.007-0.036,0.012-0.054
		c8.794-42.822,40.992-77.207,82.587-89.156c0.171-0.048,0.339-0.098,0.509-0.146c0.962-0.271,1.932-0.53,2.905-0.778
		c1.11-0.279,2.227-0.548,3.353-0.797c0.429-0.096,0.861-0.191,1.294-0.283c1.471-0.308,2.951-0.595,4.446-0.849
		c6.454-1.104,13.086-1.688,19.852-1.688c64.696,0,117.332,52.637,117.332,117.335C448.003,438.032,395.366,490.666,330.67,490.666z
		"/>
	<path style="fill:#000003;" d="M106.352,125.919c-1.552-0.369-3.075-0.75-4.564-1.142c-5.701-1.504-11.534,1.897-13.035,7.593
		c-1.503,5.697,1.897,11.533,7.594,13.035c1.653,0.436,3.345,0.86,5.068,1.269c0.83,0.198,1.661,0.291,2.478,0.291
		c4.826,0,9.202-3.299,10.368-8.201C115.623,133.034,112.083,127.282,106.352,125.919z"/>
	<path style="fill:#000003;" d="M269.649,197.847c1.008,0,2.035-0.145,3.05-0.447c2.098-0.625,4.212-1.298,6.284-2
		c5.579-1.891,8.569-7.948,6.677-13.528c-1.891-5.579-7.948-8.568-13.528-6.677c-1.821,0.618-3.679,1.21-5.525,1.758
		c-5.646,1.682-8.859,7.622-7.178,13.268C260.812,194.854,265.053,197.847,269.649,197.847z"/>
	<path style="fill:#000003;" d="M96.359,306.744c1.652,0.433,3.341,0.854,5.061,1.263c0.828,0.197,1.657,0.29,2.471,0.29
		c4.829,0,9.205-3.302,10.369-8.206c1.36-5.732-2.183-11.482-7.916-12.841c-1.554-0.369-3.081-0.75-4.572-1.141
		c-5.691-1.491-11.53,1.911-13.025,7.611C87.254,299.417,90.661,305.248,96.359,306.744z"/>
</g>
</svg>