<svg xmlns="http://www.w3.org/2000/svg" viewBox="0 0 447.42 427.5"><defs><style>.cls-1,.cls-4,.cls-7{fill:#92e3a9;}.cls-2,.cls-6,.cls-8,.cls-9{fill:#fff;}.cls-2{opacity:0.7;}.cls-13,.cls-14,.cls-3{fill:none;}.cls-10,.cls-13,.cls-3,.cls-4,.cls-5,.cls-7,.cls-8,.cls-9{stroke:#263238;}.cls-10,.cls-13,.cls-3,.cls-5,.cls-7,.cls-8,.cls-9{stroke-linecap:round;stroke-linejoin:round;}.cls-14,.cls-4{stroke-miterlimit:10;}.cls-12,.cls-5{fill:#263238;}.cls-6{opacity:0.3;}.cls-9{stroke-width:3px;}.cls-10,.cls-11{fill:#707070;}.cls-13{stroke-width:2px;}.cls-14{stroke:#fff;}</style></defs><g id="Background_Simple" data-name="Background Simple"><path class="cls-1" d="M441.72,160.48s-16.87-67.66-119-110.33S129.22,47,108.39,97s1,77-12.9,119.7S10.18,313.48,39,379.06s163.68,84.31,272.81,70.78S506.2,286.42,441.72,160.48Z" transform="translate(-22.72 -32)"/><path class="cls-2" d="M441.72,160.48s-16.87-67.66-119-110.33S129.22,47,108.39,97s1,77-12.9,119.7S10.18,313.48,39,379.06s163.68,84.31,272.81,70.78S506.2,286.42,441.72,160.48Z" transform="translate(-22.72 -32)"/></g><g id="Plant"><line class="cls-3" x1="16.06" y1="247.1" x2="30.25" y2="383.07"/><line class="cls-3" x1="27.45" y1="356.48" x2="21.53" y2="350.25"/><path class="cls-4" d="M46.2,384.29a7.31,7.31,0,0,0-2.56-5.46c-1.65-1.47-10.34-5.13-11.17-2.07C31.58,380.09,40.47,386.63,46.2,384.29Z" transform="translate(-22.72 -32)"/><line class="cls-3" x1="23.48" y1="352.29" x2="15.21" y2="347.13"/><line class="cls-3" x1="28.92" y1="370.52" x2="23.14" y2="365.71"/><path class="cls-4" d="M47.81,399.75a7.27,7.27,0,0,0-2.56-5.46c-1.65-1.47-10.34-5.13-11.16-2.07C33.19,395.55,42.08,402.09,47.81,399.75Z" transform="translate(-22.72 -32)"/><line class="cls-3" x1="25.09" y1="367.75" x2="16.82" y2="362.59"/><line class="cls-3" x1="23.43" y1="317.77" x2="17.59" y2="312.52"/><path class="cls-4" d="M42.26,346.55a7.25,7.25,0,0,0-2.56-5.45C38.05,339.62,29.36,336,28.54,339,27.64,342.36,36.53,348.89,42.26,346.55Z" transform="translate(-22.72 -32)"/><line class="cls-3" x1="19.54" y1="314.55" x2="11.27" y2="309.4"/><line class="cls-3" x1="25.06" y1="334.22" x2="19.2" y2="327.98"/><path class="cls-4" d="M43.87,362a7.26,7.26,0,0,0-2.56-5.46c-1.65-1.47-10.34-5.13-11.16-2.07C29.25,357.82,38.15,364.36,43.87,362Z" transform="translate(-22.72 -32)"/><line class="cls-3" x1="21.16" y1="330.02" x2="12.88" y2="324.86"/><line class="cls-3" x1="20.83" y1="293.37" x2="14.97" y2="287.4"/><path class="cls-4" d="M39.64,321.44A7.31,7.31,0,0,0,37.08,316c-1.65-1.48-10.34-5.13-11.17-2.07C25,317.24,33.91,323.78,39.64,321.44Z" transform="translate(-22.72 -32)"/><line class="cls-3" x1="16.92" y1="289.44" x2="8.65" y2="284.28"/><line class="cls-3" x1="18.01" y1="266.51" x2="12.33" y2="262.17"/><path class="cls-4" d="M37,296.21a7.31,7.31,0,0,0-2.56-5.46c-1.65-1.47-10.34-5.13-11.17-2.07C22.38,292,31.28,298.55,37,296.21Z" transform="translate(-22.72 -32)"/><line class="cls-3" x1="14.29" y1="264.21" x2="6.02" y2="259.05"/><line class="cls-3" x1="26.88" y1="347.9" x2="31.77" y2="339.92"/><path class="cls-4" d="M53,374.32a7.26,7.26,0,0,1,1.37-5.87c1.31-1.79,9.06-7.16,10.5-4.33C66.44,367.19,59.08,375.42,53,374.32Z" transform="translate(-22.72 -32)"/><line class="cls-3" x1="30.28" y1="342.32" x2="36.1" y2="336.85"/><line class="cls-3" x1="22.63" y1="307.2" x2="27.52" y2="299.23"/><path class="cls-4" d="M48.75,333.62a7.27,7.27,0,0,1,1.38-5.86c1.31-1.79,7.37-6.25,8.81-3.43C60.5,327.4,54.84,334.73,48.75,333.62Z" transform="translate(-22.72 -32)"/><line class="cls-3" x1="26.03" y1="301.62" x2="33.48" y2="294.5"/><line class="cls-3" x1="20.77" y1="289.32" x2="25.66" y2="281.35"/><path class="cls-4" d="M46.88,315.74a7.29,7.29,0,0,1,1.38-5.87c1.31-1.78,9.06-7.15,10.5-4.33C60.32,308.62,53,316.85,46.88,315.74Z" transform="translate(-22.72 -32)"/><line class="cls-3" x1="24.16" y1="283.74" x2="31.61" y2="276.62"/><line class="cls-3" x1="18.03" y1="263.11" x2="22.92" y2="255.13"/><path class="cls-4" d="M44.15,289.53a7.29,7.29,0,0,1,1.38-5.87c1.31-1.79,9-7.16,10.49-4.33C57.59,282.4,50.23,290.63,44.15,289.53Z" transform="translate(-22.72 -32)"/><line class="cls-3" x1="21.43" y1="257.53" x2="28.88" y2="250.41"/><path class="cls-4" d="M38.66,278.35A7.26,7.26,0,0,1,40,272.48c1.31-1.79,9.06-7.16,10.5-4.33C52.1,271.22,44.74,279.45,38.66,278.35Z" transform="translate(-22.72 -32)"/><line class="cls-3" x1="15.94" y1="246.35" x2="23.39" y2="239.23"/><path class="cls-4" d="M39.09,278.65a7.3,7.3,0,0,1-5.69-2c-1.64-1.49-6.17-9.76-3.21-10.9C33.41,264.54,40.83,272.71,39.09,278.65Z" transform="translate(-22.72 -32)"/><line class="cls-3" x1="16.37" y1="246.65" x2="10.07" y2="238.5"/><line class="cls-3" x1="37.31" y1="210.46" x2="37.31" y2="382.4"/><line class="cls-3" x1="53.48" y1="265.83" x2="39.37" y2="401.8"/><line class="cls-3" x1="42.35" y1="374.02" x2="39.09" y2="370.29"/><path class="cls-4" d="M61.81,402.29a7.29,7.29,0,0,0-1.38-5.87c-1.32-1.78-9.07-7.15-10.5-4.32C48.36,395.17,55.72,403.4,61.81,402.29Z" transform="translate(-22.72 -32)"/><line class="cls-3" x1="39.09" y1="370.29" x2="32.06" y2="363.54"/><line class="cls-3" x1="46.34" y1="335.2" x2="41.49" y2="331.15"/><path class="cls-4" d="M65.72,364.55a7.29,7.29,0,0,0-1.38-5.87c-1.31-1.78-9.06-7.15-10.5-4.32C52.28,357.43,59.64,365.66,65.72,364.55Z" transform="translate(-22.72 -32)"/><line class="cls-3" x1="43.01" y1="332.55" x2="35.97" y2="325.8"/><line class="cls-3" x1="44.8" y1="353.59" x2="39.91" y2="345.62"/><path class="cls-4" d="M64.12,380a7.29,7.29,0,0,0-1.38-5.87c-1.32-1.78-9.07-7.15-10.5-4.33C50.67,372.9,58,381.13,64.12,380Z" transform="translate(-22.72 -32)"/><line class="cls-3" x1="41.4" y1="348.02" x2="34.37" y2="341.27"/><line class="cls-3" x1="48.79" y1="310.42" x2="44.12" y2="305.04"/><path class="cls-4" d="M68.33,339.43A7.29,7.29,0,0,0,67,333.56c-1.31-1.78-9.07-7.15-10.5-4.32C54.88,332.31,62.24,340.54,68.33,339.43Z" transform="translate(-22.72 -32)"/><line class="cls-3" x1="45.61" y1="307.43" x2="38.58" y2="300.68"/><line class="cls-3" x1="51.25" y1="286.81" x2="46.74" y2="279.81"/><path class="cls-4" d="M71,314.2a7.29,7.29,0,0,0-1.38-5.87c-1.32-1.78-9.07-7.15-10.5-4.32C57.5,307.08,64.86,315.31,71,314.2Z" transform="translate(-22.72 -32)"/><line class="cls-3" x1="48.23" y1="282.2" x2="41.2" y2="275.45"/><line class="cls-3" x1="43.32" y1="366.69" x2="49.75" y2="359.89"/><path class="cls-4" d="M70.51,393.93a7.31,7.31,0,0,1,2.56-5.46c1.65-1.48,10.34-5.14,11.16-2.08C85.13,389.72,76.24,396.26,70.51,393.93Z" transform="translate(-22.72 -32)"/><line class="cls-3" x1="47.79" y1="361.93" x2="56.55" y2="356.49"/><line class="cls-3" x1="47.54" y1="326" x2="53.97" y2="319.2"/><path class="cls-4" d="M74.73,353.23a7.29,7.29,0,0,1,2.56-5.45c1.65-1.48,10.34-5.14,11.17-2.08C89.35,349,80.46,355.57,74.73,353.23Z" transform="translate(-22.72 -32)"/><line class="cls-3" x1="52.02" y1="321.23" x2="60.77" y2="315.8"/><line class="cls-3" x1="49.4" y1="308.11" x2="55.82" y2="301.31"/><path class="cls-4" d="M76.59,335.35a7.27,7.27,0,0,1,2.56-5.46c1.65-1.47,10.33-5.13,11.16-2.07C91.21,331.14,82.32,337.69,76.59,335.35Z" transform="translate(-22.72 -32)"/><line class="cls-3" x1="53.87" y1="303.35" x2="62.63" y2="297.92"/><line class="cls-3" x1="52.04" y1="280.55" x2="58.55" y2="275.1"/><path class="cls-4" d="M79.31,309.13a7.25,7.25,0,0,1,2.56-5.45c1.65-1.48,10.34-5.14,11.16-2.08C93.93,304.93,85,311.47,79.31,309.13Z" transform="translate(-22.72 -32)"/><line class="cls-4" x1="56.59" y1="277.13" x2="65.35" y2="271.7"/><path class="cls-4" d="M76.24,297.06a7.27,7.27,0,0,1,2.56-5.46c1.65-1.47,10.33-5.13,11.16-2.07C90.86,292.86,82,299.4,76.24,297.06Z" transform="translate(-22.72 -32)"/><line class="cls-3" x1="53.52" y1="265.06" x2="62.28" y2="259.63"/><path class="cls-4" d="M76.6,297.45a7.28,7.28,0,0,1-5.16-3.11c-1.3-1.8-4-10.82-.9-11.32C74,282.47,79.52,292,76.6,297.45Z" transform="translate(-22.72 -32)"/><line class="cls-3" x1="53.88" y1="265.45" x2="49.39" y2="256.17"/><line class="cls-3" x1="37.08" y1="356.23" x2="31.76" y2="349.12"/><path class="cls-4" d="M56.21,383.35a7.3,7.3,0,0,0-2-5.69c-1.49-1.64-9.75-6.18-10.89-3.22C42.1,377.66,50.27,385.09,56.21,383.35Z" transform="translate(-22.72 -32)"/><line class="cls-3" x1="33.49" y1="351.35" x2="25.8" y2="345.37"/><line class="cls-3" x1="37.26" y1="321.94" x2="31.76" y2="316.81"/><path class="cls-4" d="M56.21,351a7.3,7.3,0,0,0-2-5.69c-1.49-1.64-9.75-6.18-10.89-3.22C42.1,345.35,50.27,352.77,56.21,351Z" transform="translate(-22.72 -32)"/><line class="cls-3" x1="33.49" y1="319.04" x2="25.8" y2="313.05"/><line class="cls-3" x1="37.45" y1="286.3" x2="31.76" y2="278.87"/><path class="cls-4" d="M56.21,313.1a7.3,7.3,0,0,0-2-5.69c-1.49-1.64-9.75-6.18-10.89-3.22C42.1,307.41,50.27,314.83,56.21,313.1Z" transform="translate(-22.72 -32)"/><line class="cls-3" x1="33.49" y1="281.1" x2="25.8" y2="275.11"/><line class="cls-3" x1="37.08" y1="258.41" x2="31.76" y2="253.62"/><path class="cls-4" d="M56.21,287.85a7.33,7.33,0,0,0-2-5.7c-1.49-1.63-9.75-6.17-10.89-3.21C42.1,282.15,50.27,289.58,56.21,287.85Z" transform="translate(-22.72 -32)"/><line class="cls-3" x1="33.49" y1="255.85" x2="25.8" y2="249.86"/><line class="cls-3" x1="37.39" y1="233.15" x2="31.87" y2="229.1"/><path class="cls-4" d="M56.21,262.48a7.3,7.3,0,0,0-2-5.69c-1.49-1.64-9.75-6.18-10.89-3.22C42.1,256.79,50.27,264.21,56.21,262.48Z" transform="translate(-22.72 -32)"/><line class="cls-3" x1="33.49" y1="230.48" x2="25.8" y2="224.49"/><line class="cls-3" x1="38.43" y1="364.82" x2="43.02" y2="358.99"/><path class="cls-4" d="M64,393.22a7.3,7.3,0,0,1,2-5.69c1.49-1.64,9.76-6.18,10.89-3.22C78.11,387.53,69.94,395,64,393.22Z" transform="translate(-22.72 -32)"/><line class="cls-3" x1="41.28" y1="361.22" x2="49.43" y2="354.91"/><line class="cls-3" x1="37.32" y1="315.02" x2="43.02" y2="307.6"/><path class="cls-4" d="M64,341.83a7.33,7.33,0,0,1,2-5.7c1.49-1.63,9.76-6.17,10.89-3.21C78.11,336.13,69.94,343.56,64,341.83Z" transform="translate(-22.72 -32)"/><line class="cls-3" x1="41.28" y1="309.83" x2="49.43" y2="303.52"/><line class="cls-3" x1="37.32" y1="289.66" x2="43.02" y2="282.23"/><path class="cls-4" d="M64,316.46a7.3,7.3,0,0,1,2-5.69c1.49-1.64,9.76-6.18,10.89-3.22C78.11,310.77,69.94,318.19,64,316.46Z" transform="translate(-22.72 -32)"/><line class="cls-3" x1="41.28" y1="284.46" x2="49.43" y2="278.15"/><line class="cls-3" x1="37.32" y1="256.13" x2="43.02" y2="248.71"/><path class="cls-4" d="M64,282.93a7.3,7.3,0,0,1,2-5.69c1.49-1.64,9.76-6.17,10.89-3.22C78.11,277.24,69.94,284.67,64,282.93Z" transform="translate(-22.72 -32)"/><line class="cls-3" x1="41.28" y1="250.93" x2="49.43" y2="244.63"/><line class="cls-3" x1="37.57" y1="227.2" x2="43.15" y2="222.84"/><path class="cls-4" d="M64,256.58a7.33,7.33,0,0,1,2-5.7c1.49-1.63,9.76-6.17,10.89-3.21C78.11,250.88,69.94,258.31,64,256.58Z" transform="translate(-22.72 -32)"/><line class="cls-3" x1="41.28" y1="224.58" x2="49.43" y2="218.27"/><path class="cls-4" d="M59.7,244.89a7.33,7.33,0,0,1,2-5.7c1.49-1.63,9.75-6.17,10.89-3.21C73.81,239.19,65.64,246.62,59.7,244.89Z" transform="translate(-22.72 -32)"/><line class="cls-3" x1="36.98" y1="212.89" x2="45.13" y2="206.58"/><path class="cls-4" d="M60.1,245.24a7.27,7.27,0,0,1-5.45-2.57c-1.48-1.65-5.12-10.35-2.06-11.17C55.92,230.61,62.44,239.51,60.1,245.24Z" transform="translate(-22.72 -32)"/><line class="cls-3" x1="37.38" y1="213.24" x2="31.96" y2="204.47"/><polygon class="cls-5" points="44.39 427 26.18 427 23.9 381.01 46.66 381.01 44.39 427"/></g><g id="Device"><path class="cls-5" d="M272.63,51.54H215.46l-.06.21c-1.69,6.09-5.58,10-9.9,10H203c-4.31,0-8.21-3.95-9.9-10l-.06-.21H135.89a28.83,28.83,0,0,0-28.83,28.83V367.85a28.83,28.83,0,0,0,28.83,28.83H272.63a28.83,28.83,0,0,0,28.83-28.83V80.37A28.83,28.83,0,0,0,272.63,51.54Z" transform="translate(-22.72 -32)"/><path class="cls-6" d="M272.63,51.54H215.46l-.06.21c-1.69,6.09-5.58,10-9.9,10H203c-4.31,0-8.21-3.95-9.9-10l-.06-.21H135.89a28.83,28.83,0,0,0-28.83,28.83V367.85a28.83,28.83,0,0,0,28.83,28.83H272.63a28.83,28.83,0,0,0,28.83-28.83V80.37A28.83,28.83,0,0,0,272.63,51.54Z" transform="translate(-22.72 -32)"/><path class="cls-7" d="M107.06,176.78V367.85a28.83,28.83,0,0,0,28.83,28.83H272.63a28.83,28.83,0,0,0,28.83-28.83V176.78Z" transform="translate(-22.72 -32)"/><path class="cls-8" d="M168.36,347.82H134a5.49,5.49,0,0,0-5.49,5.5v17.84a5.49,5.49,0,0,0,5.49,5.49H156.1L162,387.17l1.17-10.52h5.24a5.49,5.49,0,0,0,5.49-5.49V353.32A5.49,5.49,0,0,0,168.36,347.82Z" transform="translate(-22.72 -32)"/><path class="cls-5" d="M142.65,362.92a2.29,2.29,0,1,1-2.29-2.28A2.29,2.29,0,0,1,142.65,362.92Z" transform="translate(-22.72 -32)"/><path class="cls-5" d="M153.63,362.92a2.29,2.29,0,1,1-2.29-2.28A2.28,2.28,0,0,1,153.63,362.92Z" transform="translate(-22.72 -32)"/><path class="cls-5" d="M164.61,362.92a2.29,2.29,0,1,1-2.29-2.28A2.28,2.28,0,0,1,164.61,362.92Z" transform="translate(-22.72 -32)"/><path class="cls-8" d="M276.12,400.31h27V393c-9.28-16.62-30.53-54.95-33.41-62.17-3.71-9.27-6.5-13.91-11.13-25.66s-11.75-20.41-15.77-22.26-8.66-4.33-7.42-.62,5.25,6.8,6.49,8.35-7.63,15.58-6.75,19.69,1.8,9.68,7.37,14.94a84.61,84.61,0,0,0,11.44,9Z" transform="translate(-22.72 -32)"/><rect class="cls-5" x="218.8" y="207.5" width="5.28" height="120.44"/><rect class="cls-9" x="175.13" y="168.8" width="93.42" height="40.7" rx="7.67"/><polygon class="cls-7" points="187.25 180.41 189.11 186.15 195.14 186.15 190.26 189.7 192.13 195.43 187.25 191.89 182.37 195.43 184.23 189.7 179.35 186.15 185.38 186.15 187.25 180.41"/><polygon class="cls-7" points="204.96 180.41 206.82 186.15 212.86 186.15 207.98 189.7 209.84 195.43 204.96 191.89 200.08 195.43 201.94 189.7 197.06 186.15 203.1 186.15 204.96 180.41"/><polygon class="cls-7" points="222.67 180.41 224.54 186.15 230.57 186.15 225.69 189.7 227.55 195.43 222.67 191.89 217.79 195.43 219.66 189.7 214.78 186.15 220.81 186.15 222.67 180.41"/><polygon class="cls-7" points="240.39 180.41 242.25 186.15 248.28 186.15 243.4 189.7 245.27 195.43 240.39 191.89 235.51 195.43 237.37 189.7 232.49 186.15 238.52 186.15 240.39 180.41"/><polygon class="cls-7" points="258.1 180.41 259.96 186.15 266 186.15 261.12 189.7 262.98 195.43 258.1 191.89 253.22 195.43 255.09 189.7 250.21 186.15 256.24 186.15 258.1 180.41"/><path class="cls-8" d="M257.93,322.8s-8.35-8.65-9-13.6a106.25,106.25,0,0,1-.62-12.37c0-1.85-2.47-14.22-2.47-18.55s4.33-9.28,5.25-7.11,0,11.44,3.41,16.39,7.73,16.38,8.65,21.95a102.29,102.29,0,0,1,.93,13.6" transform="translate(-22.72 -32)"/><path class="cls-8" d="M244.94,281.68s-8.35-6.8-10.2-3.71-.93,5.88,1.85,6.8,7.73,4,8.66.93S244.94,281.68,244.94,281.68Z" transform="translate(-22.72 -32)"/><path class="cls-8" d="M244.63,293.12s-8.66-8-10.2-5.25-1.86,5.87.93,7.73,9.89,6.8,11.44,4S244.63,293.12,244.63,293.12Z" transform="translate(-22.72 -32)"/><path class="cls-8" d="M244,301.16s-8.65-8-10.2-5.26-1.86,5.88.93,7.73,9.89,6.81,11.44,4S244,301.16,244,301.16Z" transform="translate(-22.72 -32)"/><path class="cls-8" d="M241.85,308.54s-6.3-5.86-7.43-3.83-1.35,4.28.68,5.63,7.2,5,8.33,2.93S241.85,308.54,241.85,308.54Z" transform="translate(-22.72 -32)"/><path class="cls-8" d="M186.52,405l1.33-3.94a84.93,84.93,0,0,0,11.44-9c5.57-5.25,6.49-10.82,7.37-14.93s-8-18.15-6.75-19.7,5.25-4.63,6.49-8.34-3.4-1.24-7.42.61S187.85,360.23,183.21,372s-7.42,16.38-11.13,25.66c-.56,1.4-1.82,4-3.54,7.34Z" transform="translate(-22.72 -32)"/><rect class="cls-5" x="194.96" y="306.3" width="5.28" height="99.9" transform="translate(372.48 680.5) rotate(180)"/><path class="cls-8" d="M183.83,389.6s8.35-8.66,9-13.6a106.33,106.33,0,0,0,.62-12.37c0-1.86,2.47-14.22,2.47-18.55s-4.33-9.28-5.26-7.11,0,11.44-3.4,16.38-7.73,16.39-8.66,22a103.39,103.39,0,0,0-.92,13.6" transform="translate(-22.72 -32)"/><path class="cls-8" d="M196.82,348.48s8.34-6.8,10.2-3.71.93,5.87-1.86,6.8-7.73,4-8.65.93S196.82,348.48,196.82,348.48Z" transform="translate(-22.72 -32)"/><path class="cls-8" d="M197.13,359.92s8.65-8,10.2-5.26,1.85,5.88-.93,7.73-9.89,6.8-11.44,4S197.13,359.92,197.13,359.92Z" transform="translate(-22.72 -32)"/><path class="cls-8" d="M197.74,368s8.66-8,10.21-5.26,1.85,5.88-.93,7.73-9.89,6.8-11.44,4S197.74,368,197.74,368Z" transform="translate(-22.72 -32)"/><path class="cls-8" d="M199.9,375.34s6.31-5.86,7.44-3.83,1.35,4.28-.68,5.63-7.21,4.95-8.33,2.93S199.9,375.34,199.9,375.34Z" transform="translate(-22.72 -32)"/><circle class="cls-9" cx="197.2" cy="285.41" r="36.83" transform="translate(-133.07 413.92) rotate(-82.92)"/><circle class="cls-8" cx="197.2" cy="285.41" r="24.08" transform="translate(-133.01 414.04) rotate(-82.94)"/><path class="cls-8" d="M183.3,301.17a15.76,15.76,0,0,1,27.5-.52" transform="translate(-22.72 -32)"/><path class="cls-5" d="M191.47,281c0,2.75-.81,5-1.81,5s-1.81-2.23-1.81-5,.81-5,1.81-5S191.47,278.21,191.47,281Z" transform="translate(-22.72 -32)"/><path class="cls-5" d="M205.05,281c0,2.75-.81,5-1.81,5s-1.81-2.23-1.81-5,.81-5,1.81-5S205.05,278.21,205.05,281Z" transform="translate(-22.72 -32)"/><path class="cls-8" d="M100.24,347.6s18-29.65,21.73-38.93,6.5-13.91,11.13-25.66,11.75-20.41,15.77-22.26,8.66-4.33,7.42-.62-5.25,6.8-6.49,8.35,7.63,15.58,6.75,19.69-1.8,9.68-7.37,14.94a84.61,84.61,0,0,1-11.44,9L108.92,397" transform="translate(-22.72 -32)"/><rect class="cls-5" x="144.85" y="217.33" width="5.28" height="120.44" transform="translate(272.27 523.1) rotate(180)"/><circle class="cls-9" cx="147.68" cy="196.35" r="36.31" transform="translate(-118.31 129.94) rotate(-45)"/><path class="cls-5" d="M168.17,187.93h-13.9a58.83,58.83,0,0,0,1.8-9.78c.51-5.4-1.29-6.17-5.41-6.17s0,3.6-2,8c-1.65,3.5-6.59,7-8.5,8.26v24.17H160.7c7-1,2.58-5.92,2.58-5.92,5.14-1,2.05-6.17,2.05-6.17,5.15-.78,1.55-5.67,1.55-5.67C172.28,192.05,168.17,187.93,168.17,187.93Z" transform="translate(-22.72 -32)"/><rect class="cls-5" x="102.98" y="156.19" width="11.58" height="23.42"/><path class="cls-8" d="M133.72,300.63s8.35-8.65,9-13.6a106.25,106.25,0,0,0,.62-12.37c0-1.85,2.47-14.22,2.47-18.55s-4.33-9.28-5.26-7.11,0,11.44-3.4,16.39-7.73,16.38-8.65,21.95a102.29,102.29,0,0,0-.93,13.6" transform="translate(-22.72 -32)"/><path class="cls-8" d="M146.71,259.51s8.35-6.8,10.2-3.71.93,5.88-1.85,6.8-7.73,4-8.66.93S146.71,259.51,146.71,259.51Z" transform="translate(-22.72 -32)"/><path class="cls-8" d="M147,271s8.65-8,10.2-5.25,1.86,5.87-.93,7.73-9.89,6.8-11.44,4S147,271,147,271Z" transform="translate(-22.72 -32)"/><path class="cls-8" d="M147.64,279s8.65-8,10.2-5.26,1.85,5.88-.93,7.73-9.89,6.81-11.44,4S147.64,279,147.64,279Z" transform="translate(-22.72 -32)"/><path class="cls-8" d="M149.8,286.37s6.3-5.86,7.43-3.83,1.35,4.28-.68,5.63-7.2,5-8.33,2.93S149.8,286.37,149.8,286.37Z" transform="translate(-22.72 -32)"/><path class="cls-8" d="M272.63,51.54H215.46l-.06.21c-1.69,6.09-5.58,10-9.9,10H203c-4.31,0-8.21-3.95-9.9-10l-.06-.21H135.89a28.83,28.83,0,0,0-28.83,28.83v5.18h194.4V80.37A28.83,28.83,0,0,0,272.63,51.54Z" transform="translate(-22.72 -32)"/><path class="cls-10" d="M313.83,157.09V120.55h-3.31V73.78A28.83,28.83,0,0,0,281.69,45H126.83A28.83,28.83,0,0,0,98,73.78V388.45a28.83,28.83,0,0,0,28.83,28.83H281.69a28.83,28.83,0,0,0,28.83-28.83V188.22h3.31V166.63h-3.31v-9.54ZM301.46,367.85a28.83,28.83,0,0,1-28.83,28.83H135.89a28.83,28.83,0,0,1-28.83-28.83V80.37a28.83,28.83,0,0,1,28.83-28.83h57.17l.06.21c1.69,6.09,5.59,10,9.9,10h2.48c4.32,0,8.21-3.95,9.9-10l.06-.21h57.17a28.83,28.83,0,0,1,28.83,28.83Z" transform="translate(-22.72 -32)"/><path class="cls-5" d="M276.64,48.92H131.88a30.54,30.54,0,0,0-30.54,30.54v303.3a30.54,30.54,0,0,0,30.54,30.54H276.64a30.54,30.54,0,0,0,30.54-30.54V79.46A30.54,30.54,0,0,0,276.64,48.92Zm24.82,318.93a28.83,28.83,0,0,1-28.83,28.83H135.89a28.83,28.83,0,0,1-28.83-28.83V80.37a28.83,28.83,0,0,1,28.83-28.83h57.17l.06.21c1.69,6.09,5.59,10,9.9,10h2.48c4.32,0,8.21-3.95,9.9-10l.06-.21h57.17a28.83,28.83,0,0,1,28.83,28.83Z" transform="translate(-22.72 -32)"/><circle class="cls-11" cx="180.95" cy="20.92" r="2.71"/><path class="cls-12" d="M124.34,63.29c0,2.74-3.08,3.73-3.09,5.82v.14h3v.92h-4v-.78c0-2.93,3.08-3.5,3.08-6.06,0-.93-.32-1.42-1.07-1.42s-1.06.53-1.06,1.33v.81h-1v-.74c0-1.39.64-2.31,2-2.31S124.34,61.91,124.34,63.29Z" transform="translate(-22.72 -32)"/><path class="cls-12" d="M129.31,63.28v.23a1.81,1.81,0,0,1-1.1,1.87,1.82,1.82,0,0,1,1.1,1.88V68c0,1.38-.65,2.29-2,2.29s-2-.91-2-2.29v-.63h1V68c0,.82.34,1.31,1.06,1.31s1.07-.48,1.07-1.4v-.7c0-.9-.38-1.32-1.15-1.35h-.54V65h.6a1.09,1.09,0,0,0,1.09-1.24v-.42c0-.93-.33-1.41-1.07-1.41s-1.06.5-1.06,1.32v.47h-1v-.42c0-1.39.65-2.28,2-2.28S129.31,61.89,129.31,63.28Z" transform="translate(-22.72 -32)"/><path class="cls-12" d="M131.27,64v1.26h-1V64Zm0,4.94v1.26h-1V68.91Z" transform="translate(-22.72 -32)"/><path class="cls-12" d="M133.32,64.79a1.46,1.46,0,0,1,1.35-.76c1.17,0,1.69.86,1.69,2.16V68c0,1.38-.66,2.29-2.05,2.29s-2-.91-2-2.29v-.61h.95V68c0,.82.33,1.31,1.06,1.31s1.07-.49,1.07-1.31V66.27c0-.82-.34-1.32-1.07-1.32a1,1,0,0,0-1,1v.21h-.95l.25-5h3.58V62h-2.68Z" transform="translate(-22.72 -32)"/><path class="cls-12" d="M141.41,63.27v.17h-.95V63.2c0-.81-.34-1.29-1.08-1.29s-1.1.49-1.1,1.46v2a1.47,1.47,0,0,1,1.47-1c1.16,0,1.68.84,1.68,2.15V68c0,1.38-.69,2.29-2.07,2.29s-2.09-.91-2.09-2.29V63.33c0-1.44.65-2.33,2.09-2.33S141.41,61.88,141.41,63.27Zm-3.13,3.4V68c0,.82.34,1.31,1.08,1.31s1.07-.49,1.07-1.31V66.67c0-.82-.35-1.31-1.07-1.31S138.28,65.85,138.28,66.67Z" transform="translate(-22.72 -32)"/><rect class="cls-12" x="215.3" y="31.67" width="2.56" height="6.41"/><rect class="cls-12" x="218.72" y="30.38" width="2.56" height="7.7"/><rect class="cls-12" x="222.14" y="29.47" width="2.56" height="8.61"/><rect class="cls-12" x="225.56" y="27.88" width="2.56" height="10.2"/><path class="cls-12" d="M282.58,69.9H267.19V60.5h15.39ZM268,69.05h13.68v-7.7H268Z" transform="translate(-22.72 -32)"/><rect class="cls-12" x="246.61" y="30.28" width="8.12" height="5.83"/><rect class="cls-12" x="259.33" y="32.09" width="1.94" height="2.22"/><path class="cls-12" d="M261.55,67.86a.64.64,0,0,1-.3-.08c-3.13-1.86-5.2-.14-5.29-.06a.57.57,0,0,1-.75-.87c.11-.1,2.76-2.36,6.63-.06a.58.58,0,0,1-.29,1.07Z" transform="translate(-22.72 -32)"/><path class="cls-12" d="M262.71,65.93a.55.55,0,0,1-.3-.09c-4.53-2.69-7.57-.08-7.6-.06a.57.57,0,0,1-.76-.86s3.71-3.18,8.95-.06a.58.58,0,0,1-.29,1.07Z" transform="translate(-22.72 -32)"/><path class="cls-12" d="M263.76,63.69a.67.67,0,0,1-.3-.08c-5.73-3.41-9.55-.2-9.7-.06a.59.59,0,0,1-.82-.06.58.58,0,0,1,.06-.81s4.57-3.91,11.05-.06a.58.58,0,0,1-.29,1.07Z" transform="translate(-22.72 -32)"/><path class="cls-12" d="M259.82,68.82a1.45,1.45,0,1,1-1.45-1.44A1.44,1.44,0,0,1,259.82,68.82Z" transform="translate(-22.72 -32)"/><circle class="cls-8" cx="138.96" cy="125.16" r="26.43" transform="translate(-48 3.72) rotate(-13.44)"/><path class="cls-8" d="M135.62,143l-.6,8.27a25.65,25.65,0,0,0,3.94.31,26.23,26.23,0,0,0,14-4c.21-4.55-1-19.8-1-19.8a8.48,8.48,0,0,0,3.92-6.32c.22-4.14-2.61-5.23-2.61-5.23s3.05-10,1.3-12.85-13.94-9.59-24.4-7.41-9.59,9.8-8.94,10.46A44.16,44.16,0,0,0,125,109s.43,14.6,1.09,17.22,4.51,13.71,6,15A9.37,9.37,0,0,0,135.62,143Z" transform="translate(-22.72 -32)"/><path class="cls-5" d="M130.18,95.94c-10.46,2.18-9.59,9.8-8.94,10.46a25.9,25.9,0,0,0,2.65,1.91l.62-.17a2.78,2.78,0,0,0,1.31.44c.65,0,2-1.31,2-1.31s4.36,2.39,5.45,2.18,2.83-2.84,4.79-2.84,7.63-.21,6.54,2.4-3.27,3.71-.87,5.23,4.57,1.53,4.79,3.27-1.52,5.88.22,6.1,3.05-3,3.27-4.58a6.57,6.57,0,0,1,1.31-2.83s3.05-10,1.3-12.85S140.64,93.76,130.18,95.94Z" transform="translate(-22.72 -32)"/><polyline class="cls-3" points="108.11 89.87 108.33 99.46 112.91 99.46"/><path class="cls-12" d="M129.46,123.57c0,.84-.29,1.52-.65,1.52s-.66-.68-.66-1.52.3-1.53.66-1.53S129.46,122.72,129.46,123.57Z" transform="translate(-22.72 -32)"/><path class="cls-12" d="M139.5,123.44c0,.84-.29,1.53-.65,1.53s-.66-.69-.66-1.53.29-1.53.66-1.53S139.5,122.6,139.5,123.44Z" transform="translate(-22.72 -32)"/><path class="cls-3" d="M130.18,126.44h-6.57a1.09,1.09,0,0,1-1.09-1.09v-3a1.09,1.09,0,0,1,1.09-1.09h6.57Z" transform="translate(-22.72 -32)"/><path class="cls-3" d="M132.76,126.44h7.66a1.09,1.09,0,0,0,1.09-1.09v-3a1.09,1.09,0,0,0-1.09-1.09h-7.66Z" transform="translate(-22.72 -32)"/><line class="cls-3" x1="107.46" y1="89.21" x2="110.04" y2="89.21"/><line class="cls-3" x1="118.79" y1="90.3" x2="127.73" y2="90.3"/><path class="cls-3" d="M133.88,119.25s3.92-1.3,6.54.66" transform="translate(-22.72 -32)"/><path class="cls-3" d="M129.74,119.69s-.84-1.53-3.49,0" transform="translate(-22.72 -32)"/><path class="cls-13" d="M131.27,133.42a20.48,20.48,0,0,0,5.66-.44c2.4-.65,5.67-2.4,5.67,0a15,15,0,0,1-2.62,7.41,7.52,7.52,0,0,1-2,1.48,5,5,0,0,1-5.92-.63,3.7,3.7,0,0,1-.8-1.07C130.18,138,127.56,132.76,131.27,133.42Z" transform="translate(-22.72 -32)"/><path class="cls-3" d="M131.27,135.38a10.29,10.29,0,0,0,9.37-1.31" transform="translate(-22.72 -32)"/><path class="cls-5" d="M135.62,143a21.67,21.67,0,0,0,8.29-3.27,46.73,46.73,0,0,0,4.35-3.27L135.19,147.8Z" transform="translate(-22.72 -32)"/><line class="cls-14" x1="151.01" y1="75.55" x2="195.55" y2="75.55"/><line class="cls-14" x1="151.01" y1="82.56" x2="224.07" y2="82.56"/><line class="cls-14" x1="151.01" y1="104.68" x2="224.07" y2="104.68"/><line class="cls-14" x1="151.01" y1="112.88" x2="224.07" y2="112.88"/><line class="cls-14" x1="151.01" y1="121.07" x2="224.07" y2="121.07"/><line class="cls-14" x1="151.01" y1="91.07" x2="224.07" y2="91.07"/></g><g id="Character"><polygon class="cls-5" points="320.52 287.6 320.52 422.78 314.02 422.78 314.02 287.6 309.89 287.6 309.89 427 310.81 427 314.02 427 320.52 427 324.65 427 324.65 422.78 324.65 287.6 320.52 287.6"/><polygon class="cls-5" points="442.79 287.6 442.79 422.78 436.88 422.78 436.88 287.6 432.75 287.6 432.75 427 432.78 427 436.88 427 442.79 427 446.62 427 446.92 427 446.92 287.6 442.79 287.6"/><rect class="cls-8" x="314.02" y="244.48" width="128.77" height="93.33" rx="5.02"/><path class="cls-8" d="M465.21,389.76H336.44a2.65,2.65,0,0,1-2.65-2.65V368.2a2.65,2.65,0,0,1,2.65-2.65L397,368.24q6.92.3,13.82,0l54.4-2.66a2.66,2.66,0,0,1,2.66,2.65v18.91A2.66,2.66,0,0,1,465.21,389.76Z" transform="translate(-22.72 -32)"/><path class="cls-5" d="M376.19,327.53l1.67,38.67s28.66,4.33,47,.67,10-32,9.66-35a9.43,9.43,0,0,0-1.33-4.34Z" transform="translate(-22.72 -32)"/><polygon class="cls-8" points="363.82 298.17 396.73 298.17 395.44 219.64 393.1 217.83 372.63 220.16 372.11 221.72 363.82 298.17"/><path class="cls-7" d="M395.87,251.12l-1.3,7.52-3.89,71.27H366.32l-7.77-18.66s6.22-44.06,9.07-47.95S395.87,251.12,395.87,251.12Z" transform="translate(-22.72 -32)"/><path class="cls-7" d="M394.57,258.64l1.3-7.52s-4.18,1.37-9.34,3.25c-.83,5.74-2.16,18.13-.25,29.41,1.59,9.39,4,19,5.56,25Z" transform="translate(-22.72 -32)"/><line class="cls-3" x1="349.82" y1="250.22" x2="350.34" y2="245.04"/><line class="cls-3" x1="346.46" y1="283.65" x2="349.28" y2="255.61"/><path class="cls-8" d="M382.65,207.59s.52,17.36,1.3,20.47,5.36,16.3,7.17,17.86a11.13,11.13,0,0,0,4.23,2.09l-.78,10.63s4.15,7,8.81,7,11.66-8.56,12.44-10.89-1-24.88-1-24.88,4.41-2.59,4.67-7.51-3.11-6.22-3.11-6.22,3.63-11.92,1.55-15.29-16.58-11.4-29-8.81-11.4,11.66-10.63,12.44A52.82,52.82,0,0,0,382.65,207.59Z" transform="translate(-22.72 -32)"/><path class="cls-5" d="M388.87,192c-12.44,2.59-11.4,11.66-10.63,12.44a32.12,32.12,0,0,0,3.15,2.28l.74-.21a3.3,3.3,0,0,0,1.56.52c.77,0,2.33-1.56,2.33-1.56s5.18,2.85,6.48,2.59,3.37-3.36,5.7-3.36,9.07-.26,7.77,2.85-3.88,4.4-1,6.22,5.44,1.81,5.7,3.88-1.82,7,.26,7.26,3.63-3.63,3.88-5.44a7.72,7.72,0,0,1,1.56-3.37s3.63-11.92,1.55-15.29S401.31,189.45,388.87,192Z" transform="translate(-22.72 -32)"/><polyline class="cls-3" points="366.93 190.88 367.19 202.28 372.63 202.28"/><path class="cls-12" d="M387.31,225c0,1-.34,1.81-.77,1.81s-.78-.81-.78-1.81.35-1.81.78-1.81S387.31,224,387.31,225Z" transform="translate(-22.72 -32)"/><path class="cls-12" d="M397.68,224.69c0,1-.35,1.81-.78,1.81s-.77-.81-.77-1.81.34-1.81.77-1.81S397.68,223.69,397.68,224.69Z" transform="translate(-22.72 -32)"/><path class="cls-3" d="M388.87,228.32h-7.81a1.3,1.3,0,0,1-1.3-1.3v-3.63a1.3,1.3,0,0,1,1.3-1.29h7.81Z" transform="translate(-22.72 -32)"/><path class="cls-3" d="M391.94,228.32h9.11a1.3,1.3,0,0,0,1.3-1.3v-3.63a1.3,1.3,0,0,0-1.3-1.29h-9.11Z" transform="translate(-22.72 -32)"/><line class="cls-3" x1="366.15" y1="190.1" x2="369.22" y2="190.1"/><line class="cls-3" x1="379.63" y1="191.39" x2="390.25" y2="191.39"/><path class="cls-3" d="M393.27,219.77s4.67-1.56,7.78.77" transform="translate(-22.72 -32)"/><path class="cls-3" d="M388.35,220.28s-1-1.81-4.15,0" transform="translate(-22.72 -32)"/><path class="cls-13" d="M390.17,236.61a24.51,24.51,0,0,0,6.73-.52c2.85-.77,6.74-2.85,6.74,0a17.78,17.78,0,0,1-3.11,8.81,8.9,8.9,0,0,1-2.36,1.76,6,6,0,0,1-7.05-.74,4.74,4.74,0,0,1-.95-1.27C388.87,242.05,385.76,235.83,390.17,236.61Z" transform="translate(-22.72 -32)"/><path class="cls-3" d="M390.17,238.94a12.21,12.21,0,0,0,11.14-1.55" transform="translate(-22.72 -32)"/><path class="cls-5" d="M395.35,248a25.53,25.53,0,0,0,9.85-3.88,55.11,55.11,0,0,0,5.18-3.89l-15.55,13.48Z" transform="translate(-22.72 -32)"/><path class="cls-7" d="M415.82,249.83l-1.29,79.3,23.84.52,3.37-12.7,17.88-1s-6.22-32.13-8.55-41.2-2.34-11.15-6-14.26S415.82,249.83,415.82,249.83Z" transform="translate(-22.72 -32)"/><path class="cls-7" d="M415,303.36a90.6,90.6,0,0,0,6.57-12.59c3.33-7.76,2.86-31.68,2.66-38.39-4.73-1.49-8.36-2.55-8.36-2.55Z" transform="translate(-22.72 -32)"/><line class="cls-3" x1="413.07" y1="242.26" x2="412.8" y2="237.52"/><line class="cls-3" x1="415.39" y1="283.39" x2="413.37" y2="247.72"/><path class="cls-7" d="M436.17,314.41s3.49-3.05,6.11-3.56,10.91.28,14.44,1,5.84,5.66,7.19,9.13-.2,9.55-3,11.1-8.12,1.9-8.12,1.9Z" transform="translate(-22.72 -32)"/><path class="cls-8" d="M459.09,318.82c-3-3.71-31.67-5.9-31.67-5.9-5.62-.49-11-.94-11.7-.94-1.64,0-16.17,11.23-18.08,12.06-.44.18-.59.45-.56.78l-4.1,5.79,10.3-.84c3.14.79,7.68-1.18,8.88-1.9,1.37-.82,6-5.48,6-5.48l21.12,9a14.31,14.31,0,0,0,1.39,1.14c2.73,1.85,11.21,3.61,15.61,1.74S462.65,323.22,459.09,318.82Z" transform="translate(-22.72 -32)"/><path class="cls-5" d="M409.86,363.2s-1.67-2.33-4-8.67,6.33-41.33,6.33-41.33l26-9.33a107,107,0,0,1,4,23.66c.67,13,1,30-3,34.67s-21.67,6-26.67,5" transform="translate(-22.72 -32)"/><polygon class="cls-5" points="314.81 221.87 324.14 248.2 336.14 246.2 327.81 219.2 314.81 221.87"/><path class="cls-8" d="M343,270.87s-6.64-7.75-4.7-8.58,5.53-2.49,7.2-1.39a3.29,3.29,0,0,1,1.38,3.05l-4.15.27,2.77,5.82Z" transform="translate(-22.72 -32)"/><path class="cls-8" d="M351.84,264.55s-13,4.28-12.62,5.5,8.95,19.54,8.95,19.54L350.41,325l16.08-7.94-13.64-28.9s.62-3.26-.4-4.89a40,40,0,0,1-2-3.87s5.7-1.22,5.7-2.24S351.84,264.55,351.84,264.55Z" transform="translate(-22.72 -32)"/><line class="cls-3" x1="330.14" y1="236.62" x2="319.35" y2="241.1"/><line class="cls-3" x1="331.36" y1="241.31" x2="321.59" y2="245.17"/><path class="cls-5" d="M439.92,313.84s-3.88-23.32-9.33-24.36-83.19,31.62-88.37,33.43S332.11,326,332.11,326s-10.62-1.81-16.32-4.92-9.07-7.26-11.15-2.34,3.11,15.81,6.22,17.89,11.67,8,14,9.07,14-5.45,18.14-7.52,42.5-13,56-15.29,25.91-5.18,31.61-9.33" transform="translate(-22.72 -32)"/><path class="cls-8" d="M345.09,337.37l-4.84-13.79c-4.39,1.45-8.14,2.44-8.14,2.44s-10.62-1.81-16.32-4.92-9.07-7.26-11.15-2.34,3.11,15.81,6.22,17.89,11.67,8,14,9.07,14-5.45,18.14-7.52C343.4,338,344.12,337.72,345.09,337.37Z" transform="translate(-22.72 -32)"/><path class="cls-8" d="M304.64,318.76c-2.07,4.93,3.11,15.81,6.22,17.89s11.67,8,14,9.07c1.79.79,9.09-2.85,14.26-5.52l-3.64-4.85a50.77,50.77,0,0,0,1.56-6c.52-2.85-4.93-3.37-4.93-3.37s-10.62-1.81-16.32-4.92S306.72,313.84,304.64,318.76Z" transform="translate(-22.72 -32)"/><path class="cls-8" d="M325.35,345.81h.19a2.9,2.9,0,0,0,.48,0l.23,0c.21,0,.44-.08.69-.14l.13,0c.3-.08.63-.18,1-.29l.14-.05c-1.9-1.29-11.9-8.21-17.05-14.3-4.14-4.89-4.45-11.27-4.31-14.4-.85.14-1.56.79-2.17,2.22-2.07,4.93,3.11,15.81,6.22,17.89s11.67,8,14,9.07A1.65,1.65,0,0,0,325.35,345.81Z" transform="translate(-22.72 -32)"/><path class="cls-5" d="M374.27,459a24.37,24.37,0,0,0,.59-5.8c0-3.33-2-20.33-1.67-23.33s13-81,13-81l13.67,2s-5-18.34-10.67-24.67-21-6.33-27-3.67-6.67,18.67-6,33.34,2.33,78.33,2.33,78.33-6.33,15.33-8.33,19.33c-1.49,3-2.8,4.49-2.53,5.47Z" transform="translate(-22.72 -32)"/><path class="cls-8" d="M347.53,459h26.74a24.37,24.37,0,0,0,.59-5.8c0-3.33-2-20.33-1.67-23.33,0-.29.17-1.34.41-3H358.35c.11,4.56.17,7.33.17,7.33s-6.33,15.33-8.33,19.33C348.87,456.18,347.6,458,347.53,459Z" transform="translate(-22.72 -32)"/><path class="cls-8" d="M374.27,459a24.37,24.37,0,0,0,.59-5.8c0-1.77-.57-7.42-1.05-12.77l-2.29-.23s-.66-5.67-5.33-7a9,9,0,0,0-7.67,1s-6.33,15.33-8.33,19.33c-1.32,2.65-2.59,4.48-2.66,5.47Z" transform="translate(-22.72 -32)"/><path class="cls-8" d="M374.27,459a15.82,15.82,0,0,0,.46-2.8h-26a8.91,8.91,0,0,0-1.22,2.8Z" transform="translate(-22.72 -32)"/></g></svg>