<svg xmlns="http://www.w3.org/2000/svg" xmlns:xlink="http://www.w3.org/1999/xlink" viewBox="0 0 194.34 45.06"><defs><style>.cls-1{isolation:isolate;}.cls-2{fill:#f2f2f0;}.cls-3{fill:#efca2e;}.cls-4{fill:#fff;opacity:0.25;}.cls-5,.cls-6,.cls-7,.cls-8,.cls-9{mix-blend-mode:screen;opacity:0.49;}.cls-5{fill:url(#linear-gradient);}.cls-6{fill:url(#linear-gradient-2);}.cls-7{fill:url(#linear-gradient-3);}.cls-8{fill:url(#linear-gradient-4);}.cls-9{fill:url(#linear-gradient-5);}</style><linearGradient id="linear-gradient" x1="176.67" y1="239.98" x2="190.03" y2="256.31" gradientUnits="userSpaceOnUse"><stop offset="0" stop-color="#fff"/><stop offset="1"/></linearGradient><linearGradient id="linear-gradient-2" x1="211.88" y1="239.98" x2="225.24" y2="256.31" xlink:href="#linear-gradient"/><linearGradient id="linear-gradient-3" x1="247.08" y1="239.98" x2="260.45" y2="256.31" xlink:href="#linear-gradient"/><linearGradient id="linear-gradient-4" x1="282.29" y1="239.98" x2="295.65" y2="256.31" xlink:href="#linear-gradient"/><linearGradient id="linear-gradient-5" x1="317.5" y1="239.98" x2="330.86" y2="256.31" xlink:href="#linear-gradient"/></defs><g class="cls-1"><g id="objects"><rect class="cls-2" width="194.34" height="45.06" rx="16"/><path class="cls-3" d="M182.92,230.71l1,3a3.51,3.51,0,0,0,3.34,2.43h3.21a3.5,3.5,0,0,1,2.06,6.34l-2.59,1.89a3.51,3.51,0,0,0-1.28,3.92l1,3a3.51,3.51,0,0,1-5.39,3.93l-2.6-1.89a3.53,3.53,0,0,0-4.13,0l-2.59,1.89a3.51,3.51,0,0,1-5.4-3.93l1-3a3.5,3.5,0,0,0-1.27-3.92l-2.6-1.89a3.5,3.5,0,0,1,2.06-6.34h3.21a3.51,3.51,0,0,0,3.34-2.43l1-3A3.51,3.51,0,0,1,182.92,230.71Z" transform="translate(-152.83 -219.61)"/><path class="cls-4" d="M187.55,236.19h-.3a3.51,3.51,0,0,1-3.34-2.43l-1-3a3.51,3.51,0,0,0-6.67,0l-1,3a3.51,3.51,0,0,1-3.34,2.43h-3.21a3.5,3.5,0,0,0-2.06,6.34l2.6,1.89a3.55,3.55,0,0,1,1.4,2.27A37,37,0,0,1,187.55,236.19Z" transform="translate(-152.83 -219.61)"/><path class="cls-5" d="M170.52,248.34l-1,3a3.51,3.51,0,0,0,5.4,3.93l2.59-1.89a3.53,3.53,0,0,1,4.13,0l2.6,1.89a3.51,3.51,0,0,0,5.39-3.93l-1-3a3.51,3.51,0,0,1,1.28-3.92l2.59-1.89a3.5,3.5,0,0,0-2.06-6.34h-2.91a37,37,0,0,0-16.9,10.5A3.57,3.57,0,0,1,170.52,248.34Z" transform="translate(-152.83 -219.61)"/><path class="cls-3" d="M218.13,230.71l1,3a3.51,3.51,0,0,0,3.34,2.43h3.21a3.5,3.5,0,0,1,2.06,6.34l-2.6,1.89a3.5,3.5,0,0,0-1.27,3.92l1,3a3.51,3.51,0,0,1-5.4,3.93l-2.59-1.89a3.53,3.53,0,0,0-4.13,0l-2.6,1.89a3.51,3.51,0,0,1-5.39-3.93l1-3a3.51,3.51,0,0,0-1.28-3.92l-2.59-1.89a3.5,3.5,0,0,1,2.06-6.34h3.21a3.49,3.49,0,0,0,3.33-2.43l1-3A3.51,3.51,0,0,1,218.13,230.71Z" transform="translate(-152.83 -219.61)"/><path class="cls-4" d="M222.76,236.19h-.3a3.51,3.51,0,0,1-3.34-2.43l-1-3a3.51,3.51,0,0,0-6.67,0l-1,3a3.49,3.49,0,0,1-3.33,2.43h-3.21a3.5,3.5,0,0,0-2.06,6.34l2.59,1.89a3.47,3.47,0,0,1,1.4,2.27A37,37,0,0,1,222.76,236.19Z" transform="translate(-152.83 -219.61)"/><path class="cls-6" d="M205.73,248.34l-1,3a3.51,3.51,0,0,0,5.39,3.93l2.6-1.89a3.53,3.53,0,0,1,4.13,0l2.59,1.89a3.51,3.51,0,0,0,5.4-3.93l-1-3a3.5,3.5,0,0,1,1.27-3.92l2.6-1.89a3.5,3.5,0,0,0-2.06-6.34h-2.91a37,37,0,0,0-16.91,10.5A3.44,3.44,0,0,1,205.73,248.34Z" transform="translate(-152.83 -219.61)"/><path class="cls-3" d="M253.34,230.71l1,3a3.5,3.5,0,0,0,3.33,2.43h3.21a3.51,3.51,0,0,1,2.07,6.34l-2.6,1.89a3.5,3.5,0,0,0-1.27,3.92l1,3a3.51,3.51,0,0,1-5.4,3.93l-2.6-1.89a3.51,3.51,0,0,0-4.12,0l-2.6,1.89a3.51,3.51,0,0,1-5.4-3.93l1-3a3.5,3.5,0,0,0-1.27-3.92l-2.6-1.89a3.51,3.51,0,0,1,2.07-6.34h3.21a3.5,3.5,0,0,0,3.33-2.43l1-3A3.51,3.51,0,0,1,253.34,230.71Z" transform="translate(-152.83 -219.61)"/><path class="cls-4" d="M258,236.19h-.3a3.5,3.5,0,0,1-3.33-2.43l-1-3a3.51,3.51,0,0,0-6.68,0l-1,3a3.5,3.5,0,0,1-3.33,2.43h-3.22a3.5,3.5,0,0,0-2.06,6.34l2.6,1.89a3.51,3.51,0,0,1,1.4,2.27A37,37,0,0,1,258,236.19Z" transform="translate(-152.83 -219.61)"/><path class="cls-7" d="M240.93,248.34l-1,3a3.51,3.51,0,0,0,5.4,3.93l2.6-1.89a3.51,3.51,0,0,1,4.12,0l2.6,1.89a3.51,3.51,0,0,0,5.4-3.93l-1-3a3.5,3.5,0,0,1,1.27-3.92l2.6-1.89a3.51,3.51,0,0,0-2.07-6.34H258a37,37,0,0,0-16.9,10.5A3.44,3.44,0,0,1,240.93,248.34Z" transform="translate(-152.83 -219.61)"/><path class="cls-3" d="M288.54,230.71l1,3a3.49,3.49,0,0,0,3.33,2.43h3.21a3.5,3.5,0,0,1,2.06,6.34l-2.59,1.89a3.51,3.51,0,0,0-1.28,3.92l1,3a3.51,3.51,0,0,1-5.39,3.93l-2.6-1.89a3.53,3.53,0,0,0-4.13,0l-2.59,1.89a3.51,3.51,0,0,1-5.4-3.93l1-3a3.5,3.5,0,0,0-1.27-3.92l-2.6-1.89a3.5,3.5,0,0,1,2.06-6.34h3.21a3.51,3.51,0,0,0,3.34-2.43l1-3A3.51,3.51,0,0,1,288.54,230.71Z" transform="translate(-152.83 -219.61)"/><path class="cls-4" d="M293.17,236.19h-.3a3.49,3.49,0,0,1-3.33-2.43l-1-3a3.51,3.51,0,0,0-6.67,0l-1,3a3.51,3.51,0,0,1-3.34,2.43h-3.21a3.5,3.5,0,0,0-2.06,6.34l2.6,1.89a3.55,3.55,0,0,1,1.4,2.27A37,37,0,0,1,293.17,236.19Z" transform="translate(-152.83 -219.61)"/><path class="cls-8" d="M276.14,248.34l-1,3a3.51,3.51,0,0,0,5.4,3.93l2.59-1.89a3.53,3.53,0,0,1,4.13,0l2.6,1.89a3.51,3.51,0,0,0,5.39-3.93l-1-3a3.51,3.51,0,0,1,1.28-3.92l2.59-1.89a3.5,3.5,0,0,0-2.06-6.34h-2.91a37,37,0,0,0-16.9,10.5A3.44,3.44,0,0,1,276.14,248.34Z" transform="translate(-152.83 -219.61)"/><path class="cls-3" d="M323.75,230.71l1,3a3.51,3.51,0,0,0,3.34,2.43h3.21a3.5,3.5,0,0,1,2.06,6.34l-2.6,1.89a3.5,3.5,0,0,0-1.27,3.92l1,3a3.51,3.51,0,0,1-5.4,3.93l-2.59-1.89a3.53,3.53,0,0,0-4.13,0l-2.6,1.89a3.51,3.51,0,0,1-5.39-3.93l1-3a3.51,3.51,0,0,0-1.28-3.92l-2.59-1.89a3.5,3.5,0,0,1,2.06-6.34h3.21a3.51,3.51,0,0,0,3.34-2.43l1-3A3.51,3.51,0,0,1,323.75,230.71Z" transform="translate(-152.83 -219.61)"/><path class="cls-4" d="M328.38,236.19h-.3a3.51,3.51,0,0,1-3.34-2.43l-1-3a3.51,3.51,0,0,0-6.67,0l-1,3a3.51,3.51,0,0,1-3.34,2.43h-3.21a3.5,3.5,0,0,0-2.06,6.34l2.59,1.89a3.47,3.47,0,0,1,1.4,2.27A37.06,37.06,0,0,1,328.38,236.19Z" transform="translate(-152.83 -219.61)"/><path class="cls-9" d="M311.35,248.34l-1,3a3.51,3.51,0,0,0,5.39,3.93l2.6-1.89a3.53,3.53,0,0,1,4.13,0l2.59,1.89a3.51,3.51,0,0,0,5.4-3.93l-1-3a3.5,3.5,0,0,1,1.27-3.92l2.6-1.89a3.5,3.5,0,0,0-2.06-6.34h-2.91a37.06,37.06,0,0,0-16.91,10.5A3.44,3.44,0,0,1,311.35,248.34Z" transform="translate(-152.83 -219.61)"/></g></g></svg>